<svg enable-background="new 0 0 1024 1024" viewBox="0 0 1024 1280" xmlns="http://www.w3.org/2000/svg"><path d="m951.3 399.6v96.6c0 15.6-12.7 28.3-28.3 28.3h-22.4l-67.3 331.3c-4.2 20.5-22.4 35.4-43.3 35.4h-557.9c-20.9 0-39.1-14.9-43.3-35.4l-67.3-331.3h-22.4c-15.6 0-28.3-12.7-28.3-28.3v-96.6c0-15.6 12.7-28.3 28.3-28.3h112.6l166.5-240.5 32.9 22.8-150.8 217.7h501.4l-150.7-217.7 32.9-22.8 166.5 240.5h112.6c15.6 0 28.3 12.7 28.3 28.3z"/>
    
    <!--<g font-family="'Helvetica Neue', Helvetica, Arial-Unicode, Arial, Sans-serif" font-size="5" font-weight="bold"><text y="1039">Created by IconPai</text><text y="1044">from the Noun Project</text></g>--></svg>