<?xml version="1.0" encoding="UTF-8" standalone="no"?><!-- Generator: Gravit.io --><svg xmlns="http://www.w3.org/2000/svg" xmlns:xlink="http://www.w3.org/1999/xlink" style="isolation:isolate" viewBox="0 0 221.654 185" width="221.654pt" height="185pt"><defs><clipPath id="_clipPath_c8gizlP0DVkk3VV4Ik4UXOdNqe6V7eZI"><rect width="221.654" height="185"/></clipPath></defs><g clip-path="url(#_clipPath_c8gizlP0DVkk3VV4Ik4UXOdNqe6V7eZI)"><g><path d=" M 101.587 104.493 L 47.8 179.61 C 45.045 183.457 40.413 185.475 35.723 184.892 C 30.384 184.226 23.034 182.223 15.452 176.77 C 7.872 171.318 3.624 164.983 1.287 160.127 C -0.766 155.86 -0.343 150.815 2.414 146.966 L 56.201 71.849 C 58.762 68.27 62.12 65.339 66.011 63.287 L 76.592 57.704 C 78.716 56.583 80.616 55.089 82.206 53.287 C 87.341 47.462 101.129 32.188 125.58 7.505 L 126.004 5.547 C 126.104 5.096 126.445 4.739 126.892 4.627 L 128.24 4.288 C 128.825 4.14 129.219 3.587 129.171 2.983 L 129.034 1.318 C 128.978 0.63 129.499 0.023 130.186 0.003 C 131.809 -0.043 134.97 0.426 139.429 3.633 C 143.888 6.837 145.343 9.69 145.818 11.245 C 146.019 11.905 145.615 12.596 144.943 12.761 L 143.326 13.164 C 142.738 13.309 142.341 13.86 142.39 14.467 L 142.502 15.853 C 142.54 16.312 142.311 16.756 141.917 16.99 L 140.202 18.023 C 124.697 49.137 114.671 67.118 110.81 73.861 C 109.614 75.946 108.81 78.227 108.432 80.603 L 106.539 92.438 C 105.845 96.787 104.151 100.914 101.587 104.493 Z  M 219.241 146.965 L 165.454 71.848 C 162.892 68.269 159.532 65.34 155.646 63.288 L 145.062 57.703 C 142.939 56.582 141.039 55.091 139.449 53.286 C 138.19 51.858 136.371 49.824 134.031 47.247 C 133.662 46.844 132.976 46.931 132.721 47.418 C 124.567 63.059 119.078 72.853 116.601 77.181 C 115.805 78.568 115.273 80.077 115.019 81.66 C 114.479 85.035 114.479 88.476 115.019 91.849 L 115.115 92.437 C 115.81 96.786 117.504 100.913 120.067 104.492 L 173.855 179.609 C 176.584 183.422 181.149 185.469 185.801 184.908 C 191.15 184.258 198.56 182.268 206.203 176.769 C 213.782 171.319 218.027 164.985 220.365 160.129 C 222.42 155.859 221.998 150.817 219.241 146.965 M 76.711 12.761 L 78.329 13.164 C 78.916 13.31 79.31 13.863 79.265 14.467 L 79.153 15.854 C 79.114 16.315 79.341 16.753 79.738 16.99 L 81.452 18.023 C 84.321 23.779 86.987 29.053 89.474 33.914 C 89.711 34.38 90.313 34.472 90.67 34.09 C 94.709 29.761 99.569 24.625 105.305 18.68 C 105.778 18.191 105.803 17.408 105.33 16.922 C 102.426 13.944 99.371 10.832 96.074 7.505 L 95.65 5.545 C 95.553 5.096 95.207 4.739 94.762 4.627 L 93.414 4.288 C 92.829 4.14 92.435 3.587 92.483 2.983 L 92.62 1.319 C 92.676 0.633 92.165 0.024 91.481 0.003 C 89.863 -0.045 86.697 0.416 82.225 3.631 C 77.766 6.837 76.312 9.69 75.836 11.245 C 75.635 11.905 76.039 12.596 76.711 12.761 Z " fill-rule="evenodd" fill="rgb(0,0,0)"/></g></g></svg>