<?xml version="1.0" encoding="utf-8"?>
<!-- Generator: Adobe Illustrator 19.0.1, SVG Export Plug-In . SVG Version: 6.00 Build 0)  -->
<svg version="1.1" id="Layer_1" xmlns="http://www.w3.org/2000/svg" xmlns:xlink="http://www.w3.org/1999/xlink" x="0px" y="0px"
	 viewBox="-21 145.9 551 551" style="enable-background:new -21 145.9 551 551;" xml:space="preserve">
<style type="text/css">
	.st0{fill:#BB9B54;}
</style>
<path class="st0" d="M365.9,145.9H143.2C52.6,145.9-21,219.5-21,310v222.7c0,90.5,73.6,164.2,164.2,164.2h222.7
	c90.5,0,164.2-73.6,164.2-164.2V310C530,219.5,456.4,145.9,365.9,145.9z M474.6,532.7c0,60-48.7,108.7-108.7,108.7H143.2
	c-60,0-108.7-48.7-108.7-108.7V310c0-60,48.7-108.7,108.7-108.7h222.7c60,0,108.7,48.7,108.7,108.7L474.6,532.7L474.6,532.7z"/>
<path class="st0" d="M254.5,278.9c-78.6,0-142.5,63.9-142.5,142.5s63.9,142.5,142.5,142.5S397,500,397,421.4
	S333.1,278.9,254.5,278.9z M254.5,508.5c-48.1,0-87.1-39-87.1-87.1s39-87.1,87.1-87.1c48.1,0,87.1,39,87.1,87.1
	C341.6,469.5,302.6,508.5,254.5,508.5z"/>
<circle class="st0" cx="397.3" cy="279.9" r="34.1"/>
</svg>
