<?xml version="1.0" encoding="UTF-8" standalone="no"?><!-- Generator: Gravit.io --><svg xmlns="http://www.w3.org/2000/svg" xmlns:xlink="http://www.w3.org/1999/xlink" style="isolation:isolate" viewBox="0 0 15.974 181.945" width="15.974pt" height="181.945pt"><g><path d=" M 11.222 116.445 L 6.346 116.445 C 6.749 114.568 6.622 114.474 7.473 112.424 C 7.96 111.247 8.537 110.116 9.097 109.018 C 9.758 107.724 10.436 106.391 10.979 104.963 C 12.856 111.219 11.451 115.577 11.222 116.445 Z " fill="rgb(0,0,0)"/><path d=" M 5.441 116.445 L 4.747 116.445 C 4.545 116.058 4.086 113.756 4.041 113.381 C 3.867 111.914 3.884 110.351 4.08 108.732 C 4.231 107.505 4.478 106.301 4.831 105.058 C 4.842 105.041 4.848 105.024 4.848 105.002 C 5.324 103.372 5.951 101.815 6.651 100.319 C 7.351 98.824 8.119 97.379 8.88 95.956 L 9.054 95.626 C 9.692 94.427 10.415 93.01 11.009 91.492 C 11.608 93.183 11.911 95.11 11.911 97.037 C 11.911 98.891 11.63 100.745 11.065 102.386 C 11.042 102.453 11.02 102.52 10.998 102.593 C 10.998 102.593 10.998 102.593 10.992 102.593 C 10.437 104.15 9.698 105.601 8.987 107.001 C 8.421 108.099 7.839 109.236 7.351 110.429 C 6.489 112.513 5.845 114.535 5.441 116.445 Z " fill="rgb(0,0,0)"/><path d=" M 4.681 102.386 C 4.54 101.725 4.406 100.935 4.294 100.129 C 4.025 98.062 4.008 95.99 4.249 93.968 C 4.412 92.64 4.703 91.352 5.14 90.03 C 5.913 87.706 6.999 85.689 8.153 83.55 C 8.848 82.261 9.57 80.928 10.209 79.528 C 10.685 78.475 11.038 77.596 11.312 76.739 C 11.598 77.736 11.783 78.822 11.889 79.864 C 12.001 80.906 12.04 81.908 12.046 82.737 C 12.057 84.737 11.671 86.765 10.853 88.943 C 10.836 88.971 10.819 88.999 10.819 89.033 C 10.209 90.652 9.436 92.17 8.758 93.441 L 8.584 93.766 C 7.139 96.483 5.644 99.289 4.681 102.386 Z " fill="rgb(0,0,0)"/><path d=" M 5.021 87.62 C 4.943 87.206 4.836 86.792 4.73 86.388 C 4.601 85.879 4.461 85.358 4.399 84.848 C 4.097 82.456 4.17 79.975 4.601 77.673 C 4.73 76.984 4.881 76.317 5.055 75.679 C 5.077 75.601 5.094 75.522 5.116 75.444 C 5.122 75.433 5.122 75.427 5.128 75.416 C 5.85 72.817 6.886 70.711 8.197 69.159 C 9.026 68.185 10.18 66.65 11.07 64.802 C 11.972 66.969 12.023 68.734 11.798 71.002 C 11.692 72.1 11.502 73.13 11.222 74.133 C 11.194 74.245 11.16 74.351 11.132 74.458 C 11.126 74.458 11.126 74.464 11.126 74.464 C 11.121 74.475 11.121 74.486 11.115 74.497 C 10.824 75.466 10.449 76.441 9.9 77.639 C 9.267 79.034 8.55 80.361 7.861 81.65 C 6.836 83.537 5.788 85.486 5.021 87.62 Z " fill="rgb(0,0,0)"/></g><g><path d=" M 5.009 45.941 C 4.869 45.28 4.735 44.491 4.623 43.684 C 4.354 41.617 4.337 39.545 4.578 37.523 C 4.741 36.195 5.032 34.907 5.469 33.585 C 6.242 31.261 7.328 29.244 8.482 27.105 C 9.177 25.817 9.899 24.483 10.538 23.083 C 11.014 22.03 11.367 21.151 11.641 20.294 C 11.927 21.291 12.112 22.377 12.218 23.419 C 12.33 24.461 12.369 25.464 12.375 26.293 C 12.386 28.292 12 30.32 11.182 32.499 C 11.165 32.527 11.148 32.555 11.148 32.588 C 10.538 34.207 9.765 35.725 9.087 36.996 L 8.913 37.321 C 7.468 40.038 5.973 42.844 5.009 45.941 Z " fill="rgb(0,0,0)"/><path d=" M 5.35 31.176 C 5.272 30.761 5.165 30.347 5.059 29.943 C 4.93 29.434 4.79 28.913 4.728 28.403 C 4.426 26.011 4.499 23.53 4.93 21.228 C 5.059 20.539 5.21 19.873 5.384 19.234 C 5.406 19.156 5.423 19.077 5.445 18.999 C 5.451 18.988 5.451 18.982 5.456 18.971 C 6.179 16.372 7.215 14.266 8.526 12.714 C 9.355 11.74 10.509 10.205 11.399 8.357 C 12.301 10.524 12.351 12.289 12.127 14.557 C 12.021 15.655 11.83 16.686 11.55 17.688 C 11.522 17.8 11.489 17.907 11.461 18.013 C 11.455 18.013 11.455 18.019 11.455 18.019 C 11.45 18.03 11.45 18.041 11.444 18.052 C 11.153 19.021 10.777 19.996 10.229 21.195 C 9.596 22.589 8.879 23.917 8.19 25.205 C 7.165 27.092 6.117 29.042 5.35 31.176 Z " fill="rgb(0,0,0)"/><path d=" M 5.77 2.828 C 5.58 1.798 5.455 1.619 5.36 0.006 L 6.98 0 C 6.218 1.389 6.213 1.075 5.77 2.828 Z " fill="rgb(0,0,0)"/><path d=" M 5.36 16.714 C 5.153 14.854 4.805 10.172 5.881 5.422 L 5.881 5.416 C 6.346 3.377 7.024 1.557 7.897 0 L 12.093 0.006 C 12.664 1.826 12.389 3.971 11.275 6.396 C 10.827 7.365 10.3 8.256 9.779 9.029 C 9.258 9.802 8.737 10.457 8.306 10.967 C 7.074 12.429 6.083 14.356 5.36 16.714 Z " fill="rgb(0,0,0)"/></g><path d=" M 7.987 117.885 Q 0.832 117.878 0.817 117.885 C -0.377 118.466 2.188 119.218 2.174 119.298 Q 0.183 124.797 3.685 126.36 Q 1.855 128.015 2.251 129.185 C 2.647 130.354 2.987 130.461 5.119 130.597 C 3.285 131.927 -0.4 150.064 0.817 154.609 Q 2.033 159.154 5.119 161.671 Q 1.467 169.263 2.251 171.558 Q 3.035 173.853 3.685 172.97 Q 1.855 174.626 2.251 175.795 Q 2.647 176.964 3.685 177.208 Q 6.868 180.342 7.987 181.445 M 7.987 117.885 Q 15.143 117.878 15.158 117.885 C 16.351 118.466 13.787 119.218 13.801 119.298 Q 15.791 124.797 12.29 126.36 Q 14.119 128.015 13.724 129.185 C 13.328 130.354 12.987 130.461 10.855 130.597 C 12.69 131.927 16.375 150.064 15.158 154.609 Q 13.941 159.154 10.855 161.671 Q 14.508 169.263 13.724 171.558 Q 12.939 173.853 12.29 172.97 Q 14.119 174.626 13.724 175.795 Q 13.328 176.964 12.29 177.208 Q 9.107 180.342 7.987 181.445" fill-rule="evenodd" fill="rgb(255,255,255)" vector-effect="non-scaling-stroke" stroke-width="1" stroke="rgb(0,0,0)" stroke-linejoin="miter" stroke-linecap="square" stroke-miterlimit="3"/><path d=" M 5.427 59.119 C 5.287 58.458 5.153 57.669 5.041 56.862 C 4.772 54.795 4.755 52.723 4.996 50.701 C 5.158 49.374 5.45 48.085 5.887 46.763 C 6.66 44.439 7.746 42.423 8.9 40.283 C 9.594 38.995 10.317 37.662 10.956 36.261 C 11.432 35.208 11.785 34.329 12.059 33.472 C 12.345 34.469 12.529 35.556 12.636 36.597 C 12.748 37.639 12.787 38.642 12.793 39.471 C 12.804 41.47 12.417 43.498 11.6 45.677 C 11.583 45.705 11.566 45.733 11.566 45.766 C 10.956 47.385 10.183 48.903 9.505 50.174 L 9.331 50.499 C 7.886 53.216 6.391 56.022 5.427 59.119 Z " fill="rgb(0,0,0)"/><path d=" M 5.189 72.989 C 5.049 72.328 4.915 71.538 4.803 70.732 C 4.534 68.665 4.517 66.592 4.758 64.57 C 4.92 63.243 5.212 61.955 5.648 60.633 C 6.421 58.308 7.508 56.292 8.662 54.152 C 9.356 52.864 10.079 51.531 10.717 50.131 C 11.194 49.078 11.546 48.198 11.821 47.341 C 12.107 48.338 12.291 49.425 12.398 50.467 C 12.51 51.509 12.549 52.511 12.555 53.34 C 12.566 55.34 12.179 57.367 11.362 59.546 C 11.345 59.574 11.328 59.602 11.328 59.636 C 10.717 61.255 9.945 62.772 9.267 64.044 L 9.093 64.369 C 7.648 67.085 6.153 69.891 5.189 72.989 Z " fill="rgb(0,0,0)"/><path d=" M 4.847 87.386 C 4.706 86.725 4.572 85.935 4.46 85.129 C 4.191 83.062 4.174 80.99 4.415 78.968 C 4.578 77.64 4.869 76.352 5.306 75.03 C 6.079 72.706 7.165 70.689 8.319 68.55 C 9.014 67.261 9.736 65.928 10.375 64.528 C 10.851 63.475 11.204 62.596 11.478 61.739 C 11.764 62.736 11.949 63.822 12.055 64.864 C 12.167 65.906 12.206 66.909 12.212 67.738 C 12.223 69.737 11.837 71.765 11.019 73.944 C 11.002 73.972 10.985 74 10.985 74.033 C 10.375 75.652 9.602 77.17 8.924 78.441 L 8.75 78.766 C 7.305 81.483 5.81 84.289 4.847 87.386 Z " fill="rgb(0,0,0)"/></svg>