<svg xmlns="http://www.w3.org/2000/svg" xmlns:xlink="http://www.w3.org/1999/xlink" version="1.1" x="0px" y="0px" viewBox="0 0 100 125" enable-background="new 0 0 100 100" xml:space="preserve"><path fill="#000000" d="M85,45H54.639c-0.152-0.505-0.381-0.833-0.639-0.833S53.516,44.495,53.361,45H36.638  c-0.153-0.505-0.38-0.833-0.638-0.833S35.515,44.495,35.362,45h-0.724c-0.153-0.505-0.38-0.833-0.638-0.833S33.515,44.495,33.362,45  h-2.433c-0.685-5.818-4.05-10.116-8.23-10.116c-4.691,0-8.365,5.406-8.365,12.308S18.008,59.5,22.699,59.5  c4.505,0,8.063-4.991,8.338-11.5h2.35c0.152,0.458,0.37,0.75,0.613,0.75s0.461-0.292,0.613-0.75h0.773  c0.152,0.458,0.37,0.75,0.613,0.75s0.461-0.292,0.613-0.75h16.773c0.152,0.458,0.369,0.75,0.613,0.75s0.461-0.292,0.613-0.75H68v9h3  v-6h3v6h3v-6h3v6h3v-9h2c0.229,0,0.415-0.671,0.415-1.5S85.229,45,85,45z M22.699,56.5c-2.908,0-5.365-4.264-5.365-9.308  c0-5.045,2.457-9.308,5.365-9.308c2.908,0,5.365,4.262,5.365,9.308C28.064,52.238,25.607,56.5,22.699,56.5z"/><text x="0" y="115" fill="#000000" font-size="5px" font-weight="bold" font-family="'Helvetica Neue', Helvetica, Arial-Unicode, Arial, Sans-serif">Created by chiccabubble</text><text x="0" y="120" fill="#000000" font-size="5px" font-weight="bold" font-family="'Helvetica Neue', Helvetica, Arial-Unicode, Arial, Sans-serif">from the Noun Project</text></svg>