<?xml version="1.0" encoding="UTF-8" standalone="no"?><!-- Generator: Gravit.io --><svg xmlns="http://www.w3.org/2000/svg" xmlns:xlink="http://www.w3.org/1999/xlink" style="isolation:isolate" viewBox="0 0 198.82 248.792" width="198.82pt" height="248.792pt"><path d=" M 198.23 0 C 196.929 6.757 194.849 9.784 191.23 20 C 187.612 30.216 184.783 34.459 179.325 44 C 174.986 51.825 167.4 60.862 161.23 70 C 159.192 71.207 149.697 81.262 148.795 80.978 C 142.558 76.785 151.268 71.032 152.111 76 C 153.518 84.289 147.791 91.433 143.23 101 C 138.67 110.567 117.825 137.028 114.23 141 C 110.636 144.972 95.071 160.208 91.23 159 C 88.633 158.183 89.644 151.631 93.23 152.352 C 103.354 154.386 95.888 161.943 90.231 170 C 84.573 178.057 58.814 209.826 39.23 225 C 26.691 234.474 6.26 248.782 0.59 247.642" fill="none" vector-effect="non-scaling-stroke" stroke-width="1" stroke="rgb(0,0,0)" stroke-linejoin="miter" stroke-linecap="square" stroke-miterlimit="3"/></svg>