<?xml version="1.0" encoding="UTF-8" standalone="no"?><!-- Generator: Gravit.io --><svg xmlns="http://www.w3.org/2000/svg" xmlns:xlink="http://www.w3.org/1999/xlink" style="isolation:isolate" viewBox="0 0 2500 1031" width="2500pt" height="1031pt"><defs><clipPath id="_clipPath_v7W43D2oEuuduQtnNt0WHkdNFLPpHSBS"><rect width="2500" height="1031"/></clipPath></defs><g clip-path="url(#_clipPath_v7W43D2oEuuduQtnNt0WHkdNFLPpHSBS)"><path d=" M 918 224 C 914.4 225.6 910.8 227 910 227.3 C 909.2 227.6 906.6 233 904.1 239.6 C 901.7 246.2 897.8 256.7 895.4 263 C 888.8 280.7 880.9 301.9 878.9 307.5 C 878 310.2 874.5 319.7 871.2 328.5 L 865.2 344.5 L 858.1 350.1 L 851 355.8 L 854.5 358.4 C 856.4 359.9 858 361.8 858 362.5 C 858 364.9 848.2 390.9 844.3 398.9 C 838.2 411.2 829.1 419.7 817.6 423.6 C 813.7 425 813 425.6 813 427.8 L 813 430.5 L 846.8 430.4 L 880.5 430.3 L 880.5 427.4 C 880.5 424.6 880.4 424.5 872 423.4 C 861.6 422 859.3 421.1 855.5 417.1 C 853 414.4 852.6 413.3 852.7 408.7 C 852.9 403.2 858 385.3 862.7 373.5 C 864.9 368.1 866.5 365.9 869.8 363.3 L 874.2 360 L 901.3 360.2 L 928.3 360.5 L 934.6 379 C 942.7 402.8 943.9 408.7 942 414.2 C 940.1 419.4 936.3 422.3 930.2 423 C 925.8 423.5 925.5 423.7 925.2 426.7 L 924.9 430 L 970.4 430 L 1016 430 L 1016 426.7 C 1016 423.7 1015.7 423.3 1011.6 422.2 C 1002.4 419.8 993.5 406.7 985.2 383 C 983.5 378.3 981 371.5 979.7 367.7 L 977.2 361 L 981.1 357.8 L 984.9 354.7 L 979.2 351 C 976 348.9 972.9 346.6 972.3 345.9 C 971.3 344.6 968 336.1 957 305.5 C 950.7 288 940.7 260.3 935 244.5 C 932.4 237.3 929.5 229.1 928.6 226.2 C 927.6 223.4 926.3 221 925.7 221.1 C 925 221.1 921.6 222.4 918 224 Z  M 916.1 282.1 C 920.8 296.1 927.6 316.2 931.2 326.8 L 937.8 346 L 935.3 348 C 933.9 349.1 932.4 350 931.9 350 C 931.4 350 930.4 347.9 929.6 345.2 C 928.2 340.8 906.9 278.3 903.7 269.5 C 902.5 266.1 902.5 265 903.9 260.8 C 904.7 258.1 905.9 256.1 906.4 256.3 C 907 256.5 911.3 268.1 916.1 282.1 Z  M 900.8 279.7 C 901.4 281.8 906 295.2 911 309.5 C 916.1 323.8 921.2 338.6 922.5 342.5 C 923.8 346.3 925.1 350.3 925.5 351.2 C 926.2 352.9 924.6 353 900.9 353 C 876.8 353 875.5 352.9 873.5 351 L 871.3 348.9 L 876 336.2 C 878.6 329.2 883.3 316.5 886.5 308 C 896.3 281.1 898.3 276 899.1 276 C 899.4 276 900.2 277.7 900.8 279.7 Z  M 966.1 346.6 C 972.7 350.8 977.9 354.7 977.7 355.4 C 977.5 356 972.1 360.1 965.7 364.4 L 954 372.3 L 942.4 364.4 C 935.9 360 930.7 356 930.7 355.5 C 930.6 354.5 951.9 339 953.3 339 C 953.7 339 959.5 342.4 966.1 346.6 Z  M 941.5 367.2 C 945.7 369.9 946.8 372.2 952.1 388.2 C 959.9 411.5 963.1 417.5 970.5 422.1 L 973.5 424 L 959.5 424 C 951.8 424 944.4 424.3 943 424.7 C 940.6 425.3 940.7 425.1 944.1 421.3 C 949.3 415.6 949.7 411.6 946.6 398.8 C 945.2 393.2 942.3 383.2 940.2 376.7 C 938 370.3 936.7 365 937.2 365 C 937.6 365 939.6 366 941.5 367.2 Z  M 846.9 409.2 C 846.5 415.7 847 417.3 850.8 420.9 L 854.6 424.6 L 840.9 424.6 L 827.2 424.6 L 832.9 420.9 C 836.2 418.7 840.2 414.8 842.5 411.6 C 844.7 408.5 846.6 406 846.8 406 C 847 406 847.1 407.5 846.9 409.2 Z " fill="rgb(0,0,0)"/><path d=" M 2335 223.7 C 2332 225.1 2328.4 226.5 2327.1 226.9 C 2325.2 227.4 2324 229.6 2320.9 238 C 2318.7 243.8 2314.4 255.2 2311.3 263.5 C 2308.3 271.7 2303.6 284.3 2300.9 291.5 C 2298.2 298.6 2293.4 311.5 2290.2 320 C 2287 328.5 2283.8 337.5 2283 339.9 C 2281.9 343.4 2280.2 345.3 2274.3 349.9 L 2267 355.5 L 2270.7 358.6 L 2274.5 361.8 L 2272.8 366.6 C 2259.7 405.6 2252.2 416.8 2234.7 423.2 C 2229.6 425 2228.9 425.6 2229.2 427.7 L 2229.5 430.1 L 2263.3 430.3 L 2297 430.5 L 2297 427.4 L 2297 424.3 L 2289.1 423.6 C 2275.3 422.4 2268.3 417.1 2268.7 408.2 C 2268.9 403.3 2274 385.8 2278.7 373.6 C 2280.9 368.2 2282.3 366.1 2285.9 363.4 L 2290.3 360 L 2317.4 360.2 L 2344.4 360.5 L 2350.6 379 C 2358.7 402.9 2359.9 408.7 2358 414.2 C 2356.1 419.4 2352.3 422.3 2346.2 423 C 2341.8 423.5 2341.5 423.7 2341.2 426.7 L 2340.9 430 L 2386.4 430 L 2432 430 L 2432 426.7 C 2432 423.7 2431.7 423.3 2427.6 422.2 C 2418.5 419.8 2409.6 406.8 2401.7 384.5 C 2400.4 380.6 2397.9 373.8 2396.2 369.3 L 2393.2 361 L 2396.2 358.5 C 2397.8 357.1 2399.6 356 2400.1 356 C 2402.3 356 2400.6 354.2 2395.8 351.2 C 2392.9 349.4 2389.9 347.6 2389.2 347.1 C 2388.5 346.7 2386.7 343.2 2385.3 339.4 C 2381.7 329.7 2375.7 312.8 2370 297 C 2367.4 289.6 2362.4 275.8 2359 266.5 C 2349 238.8 2343.9 224.6 2343.3 222.7 C 2342.6 220.5 2341.7 220.6 2335 223.7 Z  M 2332.8 284.1 C 2337.9 299.2 2344.7 319.3 2347.9 328.8 L 2353.7 346.1 L 2351.2 348 C 2348 350.6 2347.3 350.5 2346.5 347.7 C 2346.1 346.5 2339.8 327.9 2332.4 306.4 C 2325 284.9 2319 266.5 2319 265.5 C 2319 262.2 2321.3 255.9 2322.4 256.3 C 2323 256.5 2327.7 269 2332.8 284.1 Z  M 2321.8 294.3 C 2325.3 304.3 2330.2 318.3 2332.7 325.5 C 2335.2 332.6 2338.3 341.8 2339.6 345.7 L 2341.8 353 L 2316.7 353 C 2292.8 353 2291.5 352.9 2289.4 350.9 L 2287.2 348.9 L 2291.6 337.7 C 2294 331.5 2296 326.2 2296 325.7 C 2296 325.3 2298.4 318.5 2301.4 310.7 C 2304.3 302.9 2308.4 291.9 2310.5 286.2 C 2312.6 280.6 2314.5 276 2314.9 276 C 2315.2 276 2318.3 284.2 2321.8 294.3 Z  M 2382.6 346.7 C 2389.4 351 2394.9 354.7 2395 355 C 2395 355.3 2389.4 359.3 2382.5 363.9 L 2370 372.3 L 2358.4 364.3 C 2352 360 2346.7 356 2346.7 355.4 C 2346.6 354.4 2367.9 339 2369.4 339 C 2369.8 339 2375.8 342.5 2382.6 346.7 Z  M 2357.7 367.5 C 2361.8 370.3 2362.4 371.3 2368.9 390.5 C 2376.1 411.4 2380.4 418.9 2387.5 422.8 C 2389 423.7 2386.3 423.9 2375.5 424 C 2367.8 424 2360.4 424.3 2359 424.7 C 2356.7 425.3 2356.7 425.1 2360.2 421.2 C 2365.5 415.3 2365.8 411.2 2362.1 397 C 2357.9 381.3 2356.5 376.4 2354.1 370.2 C 2351.8 364.3 2352.4 363.8 2357.7 367.5 Z  M 2267 421.3 L 2270.9 424.6 L 2257 424.6 L 2243.2 424.6 L 2249 420.8 C 2252.2 418.7 2256.6 414.6 2258.7 411.7 L 2262.5 406.5 L 2262.8 412.2 C 2263.1 417.5 2263.4 418.2 2267 421.3 Z " fill="rgb(0,0,0)"/><path d=" M 329 229.3 C 318.3 229.7 297.2 229.9 282.2 229.8 L 255 229.5 L 255 232.1 C 255 234.5 255.5 234.8 261.1 235.9 C 269.8 237.7 275.4 240.3 278.1 244.2 L 280.5 247.5 L 280.8 284.5 L 281.1 321.5 L 277.5 323.4 C 273.4 325.6 273.4 326.7 277.8 329.5 L 280.9 331.5 L 280.9 370 C 281 405.6 280.8 408.8 279.1 412.7 C 276.8 417.6 270.7 421.6 264 422.5 C 255.3 423.7 255 423.8 255 426.8 L 255 429.5 L 289.2 429.5 C 308.1 429.5 329.5 429.9 336.8 430.3 L 350.1 431.1 L 349.8 427.8 C 349.5 424.7 349.3 424.6 342.8 423.4 C 339.2 422.7 335.3 421.7 334.2 421.1 C 331.1 419.5 327.2 414.3 325.9 410.2 C 324.2 404.8 323.4 334.5 325 332.5 C 326.1 331.2 332.8 331 370.5 331 C 394.9 331 415.5 331.3 416.4 331.6 C 417.8 332.1 418 336.5 418 370.4 C 418 408.5 418 408.7 415.7 413.1 C 413 418.2 407.6 421.7 401 422.5 C 392.4 423.6 392 423.8 392 426.8 L 392 429.5 L 426.2 429.5 C 445.1 429.5 466.5 429.9 473.8 430.3 L 487 431.1 L 487 427.5 C 487 424.4 486.7 424 484.5 424 C 478.9 424 471.7 421.7 468.4 418.8 C 462.4 413.5 462 410.4 462 368.4 L 462 331.3 L 465.5 328.9 C 467.4 327.6 469 326.2 469 325.8 C 469 325.5 467.4 324.3 465.5 323.1 L 461.9 321 L 462.2 285.3 C 462.5 252.6 462.7 249.2 464.4 245.7 C 466.7 241 473 237.2 481 235.7 C 486.8 234.6 487 234.4 487 231.5 L 487 228.5 L 466.3 229.3 C 454.8 229.7 433.5 230 418.7 229.8 L 392 229.5 L 392 232.1 C 392 234.6 392.4 234.9 398 235.8 C 407.4 237.5 413.1 240.8 415.8 246 C 418 250.3 418 251.1 418 285 C 418 310.6 417.7 319.9 416.8 320.8 C 415.9 321.7 404.5 322 371.5 322 C 330 322 327.2 321.9 325.7 320.2 C 324.2 318.6 324 314.9 324 289.4 C 324 258.9 324.9 249.6 328.1 244.3 C 330.5 240.5 338.5 236.3 345.2 235.4 C 349.6 234.8 350 234.5 350 231.9 C 350 230.4 349.7 229 349.3 228.8 C 348.8 228.6 339.7 228.8 329 229.3 Z  M 290.2 235 L 298.9 235 L 295.9 240.6 L 293 246.2 L 293 279.5 L 293 312.8 L 290.5 314.4 C 289.2 315.3 287.6 316 287 316 C 286.3 316 286 305.1 286 283 C 286 245.3 285.9 244.7 278.1 237.9 L 273.5 233.8 L 277.5 234.4 C 279.7 234.7 285.4 235 290.2 235 Z  M 435.8 235.5 C 436 235.7 435.2 237.2 434 238.8 C 432.8 240.4 431.5 243.4 431 245.6 C 430.5 247.7 430 263.5 430 280.6 L 430 311.6 L 427 313.8 C 425.4 315 423.8 316 423.5 316 C 423.2 316 423 301.5 423 283.7 C 423 263.6 422.6 250 421.9 247.5 C 421.2 244.9 419.2 241.9 415.9 238.9 L 411.1 234.3 L 423.3 234.8 C 430 235 435.7 235.4 435.8 235.5 Z  M 315.7 317.7 C 322.5 322 327.9 325.8 327.8 326.2 C 327.5 327 304.2 343 303.4 343 C 301.8 343 279.1 326.5 279.7 325.9 C 281.6 324 301.6 310.1 302.4 310 C 303 310 308.9 313.5 315.7 317.7 Z  M 451.6 317.7 C 458.4 321.9 464 325.6 464 326 C 464 326.6 442 341.9 439.8 342.8 C 439.2 343.1 418.4 329.5 415.7 327 C 415.2 326.6 418.6 323.6 423.2 320.4 C 427.7 317.1 432.8 313.5 434.5 312.3 C 436.1 311.1 437.9 310.1 438.4 310.1 C 438.9 310 444.9 313.4 451.6 317.7 Z  M 293 374.7 C 293 412.9 293.3 415.2 298.9 420.6 L 302.3 424 L 292.3 424 C 286.8 424 280.1 424.3 277.4 424.7 L 272.5 425.3 L 277 421.9 C 279.5 420 282.5 416.5 283.8 414 C 286 409.7 286 408.9 286 373.5 C 286 353.6 286.3 337 286.6 336.7 C 287 336.3 288.6 337 290.1 338.1 L 293 340.1 L 293 374.7 Z  M 430 376.8 C 430.5 417.1 430.4 416.2 436.9 421.7 L 439.5 423.9 L 429.4 424 C 423.8 424 417.1 424.3 414.4 424.7 L 409.5 425.3 L 414 421.9 C 422.7 415.2 422.5 416.6 422.8 373.7 L 423.1 335.9 L 426.3 337.9 L 429.5 339.9 L 430 376.8 Z " fill="rgb(0,0,0)"/><path d=" M 724 229.2 C 713.3 229.7 692.2 229.9 677.2 229.8 L 650 229.5 L 650 232.1 C 650 234.6 650.5 234.9 656.3 236 C 664.7 237.6 671 240.9 673.5 245.1 C 675.4 248.3 675.5 250.5 675.8 283.6 L 676.1 318.7 L 672 321.4 C 669.8 322.8 668 324.2 668 324.5 C 668 324.8 669.8 326.2 672 327.6 L 676.1 330.3 L 675.8 369.9 C 675.5 406.3 675.3 409.8 673.6 413.3 C 671.4 417.8 665.3 421.6 659 422.5 C 650.3 423.7 650 423.8 650 426.8 L 650 429.6 L 687.8 429.5 C 708.5 429.5 742.6 429.7 763.4 430 L 801.3 430.5 L 803.6 422.5 C 806.4 412.8 812.7 382.2 813.2 376 C 813.5 371.5 813.5 371.5 810.2 371.5 C 807 371.5 806.7 371.8 804.1 378.7 C 795.5 400.7 783.1 413.4 764.5 419.2 C 758.3 421.2 755.2 421.4 738.5 421.5 L 719.5 421.5 L 719.2 376.3 L 719 331.1 L 723.5 327.9 C 726 326.1 727.7 324.4 727.3 324 C 726.8 323.7 724.8 322.1 722.7 320.6 L 718.8 317.8 L 719.2 284.6 C 719.5 251.4 719.5 251.4 722 246.5 C 724.1 242.4 725.6 241 729.9 238.8 C 732.9 237.3 737.5 235.7 740.1 235.4 C 744.9 234.8 745 234.6 745 231.4 C 745 229.5 744.7 228.1 744.3 228.2 C 743.8 228.2 734.7 228.7 724 229.2 Z  M 685.3 235 L 694.1 235 L 692.2 237.7 C 688.5 243 688 247.5 688 279.2 L 688 309.9 L 685.1 311.9 C 683.5 313.1 682 314 681.7 314 C 681.4 314 681 299 680.8 280.7 C 680.5 243.4 680.6 244.3 672.8 237.5 L 668.5 233.8 L 672.5 234.4 C 674.7 234.7 680.5 235 685.3 235 Z  M 709 316.2 C 715 320.2 720 323.8 720 324.1 C 720 325.4 697.8 339 696.7 338.4 C 693.1 336.4 676 324.6 676 324.1 C 676 323.8 679 321.5 682.6 319 C 686.2 316.5 690.8 313.3 692.8 311.8 C 694.8 310.3 696.8 309.1 697.3 309.1 C 697.7 309 702.9 312.3 709 316.2 Z  M 685.4 336.1 L 688 338.1 L 688 373.9 C 688 413.7 688.3 416.2 694.3 421.2 L 697.5 423.9 L 687.4 424 C 681.8 424 675.1 424.3 672.4 424.6 L 667.5 425.2 L 671.7 422.1 C 674 420.3 676.9 417.2 678.2 415.2 C 680.5 411.5 680.5 411.2 680.8 372.7 C 681 351.4 681.5 334 681.9 334 C 682.4 334 683.9 334.9 685.4 336.1 Z " fill="rgb(0,0,0)"/><path d=" M 1107 229.1 C 1100.7 229.6 1082.2 229.9 1066 229.8 L 1036.5 229.6 L 1036.5 232 C 1036.5 234.1 1037.2 234.6 1040.5 235.4 C 1050 237.5 1051.9 238.1 1055 240.3 C 1056.9 241.5 1059.3 244.1 1060.4 246 C 1062.4 249.3 1062.5 251.3 1062.8 284.6 L 1063.1 319.8 L 1058.5 322.6 C 1056 324.2 1054 325.7 1054 326 C 1054.1 326.3 1056.1 328 1058.6 329.8 L 1063.1 333.1 L 1062.8 371.3 C 1062.5 404.6 1062.3 409.9 1060.8 412.5 C 1057.2 419 1051.6 422.3 1041.7 423.5 C 1036.2 424.1 1035.9 424.3 1036.2 426.7 L 1036.5 429.3 L 1095 429.4 L 1153.5 429.5 L 1164.9 426.6 C 1183.7 421.9 1196.1 416.2 1208.6 406.4 C 1233.7 386.9 1247 358.3 1247 324 C 1247 274.2 1218.3 240.9 1166.5 230.4 C 1156.9 228.5 1124.1 227.7 1107 229.1 Z  M 1079 235.8 C 1079 236.3 1078.2 238.2 1077.3 240.1 C 1075.7 243.1 1075.5 247.4 1075.2 277.2 L 1074.9 310.9 L 1072.3 313 C 1066.9 317.2 1067 317.9 1067 281 C 1067 243.1 1067.1 243.7 1060.3 238.1 L 1056.5 235 L 1067.8 235 C 1073.9 235 1079 235.4 1079 235.8 Z  M 1147.4 238.6 C 1156.5 241.7 1162.7 245.9 1169.5 253.2 C 1187.1 272.2 1196.4 300.1 1196.4 334 C 1196.4 375.6 1181.9 407 1157.4 418.8 C 1149.7 422.4 1149.1 422.5 1136.7 422.9 C 1124.6 423.2 1123.7 423.1 1118.6 420.6 C 1112.5 417.6 1108.6 412.6 1107 405.8 C 1105.9 400.7 1105.6 331 1106.8 331 C 1107.2 331 1109.1 329.7 1111 328.2 L 1114.4 325.3 L 1110.1 323 L 1105.9 320.6 L 1106.2 285 C 1106.5 253.9 1106.7 249.1 1108.2 246.4 C 1110.8 241.7 1116.5 237.2 1120.7 236.5 C 1122.8 236.1 1125.2 235.7 1126 235.5 C 1129.4 234.7 1141 236.3 1147.4 238.6 Z  M 1170.8 243.9 C 1189.1 255.8 1198.2 267.9 1206.1 291 C 1210.2 302.8 1211.4 314.9 1210.7 337 C 1210.3 352.3 1209.8 357.2 1207.7 365.1 C 1205 375.5 1198.9 388.5 1193 396.4 C 1189.3 401.5 1176.8 414 1175.5 414 C 1175.1 414 1176.6 411.9 1178.7 409.2 C 1196 388.3 1203.3 361.4 1201.6 325 C 1200.6 303.7 1198.3 292.6 1191.7 277 C 1186.1 263.5 1178 252.9 1166.7 243.9 C 1160.4 238.8 1163 238.9 1170.8 243.9 Z  M 1096 317.7 C 1102.6 322 1108 325.8 1108 326.1 C 1108 326.9 1086 342.2 1084 342.7 C 1082.5 343.1 1060 327.5 1060 326 C 1060 325.2 1081.9 310 1083.2 310 C 1083.6 310 1089.4 313.5 1096 317.7 Z  M 1075.1 379.1 C 1075.4 399.7 1075.7 416.6 1075.8 416.7 C 1075.9 416.8 1077.4 418.5 1079.1 420.5 L 1082.2 424 L 1069.6 424 L 1056.9 424 L 1060.6 420.8 C 1067 415.2 1067 415 1067 374.7 C 1067 354.7 1067.3 338 1067.7 337.7 C 1068 337.3 1069.7 338.1 1071.4 339.4 L 1074.5 341.8 L 1075.1 379.1 Z " fill="rgb(0,0,0)"/><path d=" M 1548 229.3 C 1537.3 229.7 1516.2 229.9 1501.2 229.8 L 1474 229.5 L 1474 232.2 C 1474 234.5 1474.5 235 1477.8 235.5 C 1488.2 237.3 1493.4 239.9 1497.4 245.3 C 1499.4 248 1499.5 249.4 1499.8 283.3 L 1500 318.5 L 1495.9 321.4 L 1491.7 324.3 L 1495.1 327.1 C 1497 328.7 1498.8 330 1499.3 330 C 1500.4 330 1500.1 403.8 1498.9 409 C 1497.1 417 1490.9 421.7 1480.7 422.8 C 1474.6 423.5 1474.5 423.6 1474.2 426.7 L 1473.9 429.9 L 1496.7 429.4 C 1509.2 429.1 1543.1 429.3 1572 429.8 C 1600.9 430.3 1624.7 430.6 1624.9 430.4 C 1626.8 428.6 1635.5 389.5 1636.7 377.7 L 1637.3 370.9 L 1634 371.2 C 1630.8 371.5 1630.5 371.9 1627 380.6 C 1617.8 403.3 1605.5 414.7 1584.6 420 C 1578.2 421.6 1573.4 422 1559.8 422 L 1543 422 L 1543 376.2 L 1543 330.5 L 1547.6 327.6 C 1550.1 326 1551.8 324.4 1551.3 324.1 C 1550.9 323.7 1548.8 322.2 1546.8 320.6 L 1543 317.9 L 1543 286.7 C 1543 269.3 1543.5 253.6 1544.1 251.1 C 1546 242.5 1551.2 238.3 1562.8 235.7 C 1567.5 234.6 1568.6 234 1568.8 232.1 C 1569 230.8 1568.8 229.5 1568.3 229.1 C 1567.9 228.7 1558.7 228.8 1548 229.3 Z  M 1509.4 235 C 1518.1 235 1518.3 235 1516.6 236.9 C 1512.5 241.4 1512.1 245.2 1512 278.2 L 1512 309.9 L 1509.1 311.9 C 1507.5 313.1 1506 314 1505.7 314 C 1505.4 314 1505 299.3 1504.8 281.2 C 1504.5 244.4 1504.6 244.9 1496.7 237.7 L 1492.5 233.8 L 1496.5 234.4 C 1498.7 234.7 1504.5 235 1509.4 235 Z  M 1532.4 316 C 1538.1 319.8 1543.1 323.4 1543.4 323.9 C 1543.7 324.4 1538.8 328 1532.6 331.9 L 1521.1 339 L 1510.6 332 C 1504.8 328.1 1500 324.6 1500 324.2 C 1500 323.7 1503.3 321.2 1507.3 318.5 C 1511.2 315.8 1515.8 312.6 1517.3 311.3 C 1518.9 310 1520.6 309 1521 309 C 1521.5 309 1526.6 312.1 1532.4 316 Z  M 1509.1 336.1 L 1512 338.1 L 1512 374.5 C 1512 414.8 1512.3 416.7 1518.2 421.4 L 1521.2 423.7 L 1506.9 424.2 C 1499 424.5 1492.4 424.6 1492.2 424.5 C 1492.1 424.4 1493.8 423.1 1496 421.6 C 1498.2 420.2 1501 417.1 1502.2 414.7 C 1504.5 410.6 1504.5 409.8 1504.8 372.2 C 1505 351.2 1505.4 334 1505.7 334 C 1505.9 334 1507.5 334.9 1509.1 336.1 Z " fill="rgb(0,0,0)"/><path d=" M 1656.3 229.7 C 1655.2 232.4 1656.9 234 1660.8 234 C 1671.4 234 1681.3 240.3 1683.8 248.6 C 1684.6 251.6 1685 263.5 1685 290.2 L 1685 327.7 L 1681 330.5 C 1678.8 332 1677 333.4 1677 333.5 C 1677 333.6 1678.8 334.9 1681 336.4 L 1685.1 339.1 L 1684.8 374.4 L 1684.5 409.7 L 1681.8 413.7 C 1678.6 418.6 1672.4 421.9 1664.9 422.6 C 1655.6 423.5 1655 423.8 1655 426.8 L 1655 429.5 L 1694.7 429.5 C 1716.6 429.5 1740.9 429.9 1748.8 430.3 L 1763 431.1 L 1763 427.6 C 1763 423.6 1762.7 423.4 1752.2 422.7 C 1744.6 422.1 1736 418.2 1732.9 413.9 C 1728.5 407.6 1728 403.6 1728 370.5 C 1728 346.7 1728.3 339 1729.3 338.3 C 1729.9 337.7 1737.7 337 1746.5 336.6 C 1764.8 335.9 1772.8 334.8 1782 331.8 C 1802.2 325.3 1817.8 309.6 1820.9 292.6 C 1826.6 261.7 1811.7 238.6 1781.3 230.9 C 1773.6 229 1769.9 228.9 1714.9 228.7 C 1669.2 228.5 1656.6 228.8 1656.3 229.7 Z  M 1696.8 277.2 L 1697 318.8 L 1693.9 321.4 C 1692.2 322.8 1690.4 324 1689.9 324 C 1689.4 324 1689 308.8 1689 286.7 C 1689 263 1688.6 248.1 1687.9 245.6 C 1687.3 243.4 1685.5 240.4 1683.9 238.8 C 1682.3 237.2 1681 235.6 1681 235.4 C 1681 235.1 1684.5 235 1688.8 235.2 L 1696.5 235.5 L 1696.8 277.2 Z  M 1750.6 238.9 C 1766.7 246.4 1776 265.2 1774.7 287.5 C 1773.7 303.8 1767.8 317.6 1758.6 324.9 C 1751.1 330.9 1737.7 332.9 1731.4 328.9 L 1728 326.8 L 1728 281.6 C 1728 256.7 1728.3 236 1728.8 235.6 C 1730.4 233.9 1744.5 236.1 1750.6 238.9 Z  M 1766.7 239 C 1782.9 246.4 1791.2 263.6 1789.7 286.5 C 1788.3 306.6 1781.4 318.9 1767.6 325.9 C 1760.1 329.7 1757.1 329.7 1762.5 325.8 C 1768.6 321.5 1774.7 312.4 1777.6 303.5 C 1782.6 288 1780.4 264.5 1772.8 252.7 C 1768.8 246.5 1763.6 241.4 1758.8 238.9 C 1749.2 234 1755.9 234.1 1766.7 239 Z  M 1718.6 324.5 C 1725.1 328.6 1730.6 332.4 1730.7 332.8 C 1730.8 333.2 1725.3 337.3 1718.5 341.9 L 1706.1 350.2 L 1694.8 342.3 C 1688.6 337.9 1683.5 333.8 1683.5 333.2 C 1683.5 332 1703.9 317.1 1705.6 317 C 1706.1 317 1712 320.4 1718.6 324.5 Z  M 1694 345 L 1696.9 347.1 L 1697.2 381.3 C 1697.5 414.6 1697.6 415.6 1699.8 419.7 L 1702 424 L 1692.6 424 C 1687.5 424 1681.7 424.3 1679.9 424.7 L 1676.5 425.3 L 1681 421.9 C 1688.6 416 1688.5 416.8 1688.8 377.7 C 1689 354.1 1689.4 343 1690.1 343 C 1690.7 343 1692.5 343.9 1694 345 Z " fill="rgb(0,0,0)"/><path d=" M 61.42 229.912 C 60.32 232.612 62.02 234.212 65.92 234.212 C 76.52 234.212 86.42 240.512 88.92 248.812 C 89.72 251.812 90.12 263.712 90.12 290.412 L 90.12 327.912 L 86.12 330.712 C 83.92 332.212 82.12 333.612 82.12 333.712 C 82.12 333.812 83.92 335.112 86.12 336.612 L 90.22 339.312 L 89.92 374.612 L 89.62 409.912 L 86.92 413.912 C 83.72 418.812 77.52 422.112 70.02 422.812 C 60.72 423.712 60.12 424.012 60.12 427.012 L 60.12 429.712 L 99.82 429.712 C 121.72 429.712 146.02 430.112 153.92 430.512 L 168.12 431.312 L 168.12 427.812 C 168.12 423.812 167.82 423.612 157.32 422.912 C 149.72 422.312 141.12 418.412 138.02 414.112 C 133.62 407.812 133.12 403.812 133.12 370.712 C 133.12 346.912 133.42 339.212 134.42 338.512 C 135.02 337.912 142.82 337.212 151.62 336.812 C 169.92 336.112 177.92 335.012 187.12 332.012 C 207.32 325.512 222.92 309.812 226.02 292.812 C 231.72 261.912 216.82 238.812 186.42 231.112 C 178.72 229.212 175.02 229.112 120.02 228.912 C 74.32 228.712 61.72 229.012 61.42 229.912 Z  M 101.92 277.412 L 102.12 319.012 L 99.02 321.612 C 97.32 323.012 95.52 324.212 95.02 324.212 C 94.52 324.212 94.12 309.012 94.12 286.912 C 94.12 263.212 93.72 248.312 93.02 245.812 C 92.42 243.612 90.62 240.612 89.02 239.012 C 87.42 237.412 86.12 235.812 86.12 235.612 C 86.12 235.312 89.62 235.212 93.92 235.412 L 101.62 235.712 L 101.92 277.412 Z  M 155.72 239.112 C 171.82 246.612 181.12 265.412 179.82 287.712 C 178.82 304.012 172.92 317.812 163.72 325.112 C 156.22 331.112 142.82 333.112 136.52 329.112 L 133.12 327.012 L 133.12 281.812 C 133.12 256.912 133.42 236.212 133.92 235.812 C 135.52 234.112 149.62 236.312 155.72 239.112 Z  M 171.82 239.212 C 188.02 246.612 196.32 263.812 194.82 286.712 C 193.42 306.812 186.52 319.112 172.72 326.112 C 165.22 329.912 162.22 329.912 167.62 326.012 C 173.72 321.712 179.82 312.612 182.72 303.712 C 187.72 288.212 185.52 264.712 177.92 252.912 C 173.92 246.712 168.72 241.612 163.92 239.112 C 154.32 234.212 161.02 234.312 171.82 239.212 Z  M 123.72 324.712 C 130.22 328.812 135.72 332.612 135.82 333.012 C 135.92 333.412 130.42 337.512 123.62 342.112 L 111.22 350.412 L 99.92 342.512 C 93.72 338.112 88.62 334.012 88.62 333.412 C 88.62 332.212 109.02 317.312 110.72 317.212 C 111.22 317.212 117.12 320.612 123.72 324.712 Z  M 99.12 345.212 L 102.02 347.312 L 102.32 381.512 C 102.62 414.812 102.72 415.812 104.92 419.912 L 107.12 424.212 L 97.72 424.212 C 92.62 424.212 86.82 424.512 85.02 424.912 L 81.62 425.512 L 86.12 422.112 C 93.72 416.212 93.62 417.012 93.92 377.912 C 94.12 354.312 94.52 343.212 95.22 343.212 C 95.82 343.212 97.62 344.112 99.12 345.212 Z " fill="rgb(0,0,0)"/><path d=" M 1925 229.2 C 1914.8 229.7 1893.8 229.9 1878.2 229.8 L 1850 229.5 L 1850 232.1 C 1850 234.6 1850.4 234.9 1856 235.8 C 1864.2 237.3 1871 240.9 1873.5 245.1 C 1875.4 248.3 1875.5 250.5 1875.8 284.7 L 1876.1 320.9 L 1872.6 323.2 C 1870.6 324.5 1869 325.8 1869 326.2 C 1869 326.6 1870.6 328.1 1872.6 329.6 L 1876.1 332.3 L 1875.8 371.4 C 1875.5 408.8 1875.4 410.7 1873.4 414 C 1870.9 418.3 1865 421.7 1859 422.5 C 1850.4 423.6 1850 423.8 1850 426.8 L 1850 429.5 L 1884.2 429.5 C 1903.1 429.5 1924.5 429.9 1931.8 430.3 L 1945 431.1 L 1945 427.5 C 1945 424.4 1944.7 424 1942.5 424 C 1941.2 424 1937.7 423.5 1934.8 422.9 C 1928.3 421.5 1922.7 416.4 1921.1 410.3 C 1920.3 407.6 1920.1 393.8 1920.2 368.8 L 1920.5 331.5 L 1966.5 331.5 L 2012.5 331.5 L 2012.5 371 C 2012.5 409.1 2012.4 410.6 2010.4 414 C 2007.9 418.3 2002 421.7 1996 422.5 C 1987.4 423.6 1987 423.8 1987 426.8 L 1987 429.5 L 2021.2 429.5 C 2040.1 429.5 2061.5 429.9 2068.8 430.3 L 2082 431.1 L 2082 427.8 L 2082 424.4 L 2074.9 423.3 C 2065 421.8 2059.8 417.5 2058 409.4 C 2057.5 407.3 2057 388.8 2057 368.4 L 2057 331.3 L 2060.5 328.9 C 2062.4 327.6 2064 326.2 2064 325.8 C 2064 325.5 2062.4 324.3 2060.4 323.1 L 2056.9 321 L 2057.2 284.8 C 2057.5 244.4 2057.4 245 2064.5 240.1 C 2068.2 237.6 2076 235 2079.7 235 C 2081.8 235 2082.1 234.6 2081.8 231.9 L 2081.5 228.8 L 2067.5 229.1 C 2059.8 229.3 2038.5 229.5 2020.2 229.5 L 1987 229.5 L 1987 232.2 C 1987 234.6 1987.4 234.9 1991.8 235.6 C 2000 236.8 2006.8 239.8 2009.8 243.7 L 2012.5 247.3 L 2012.8 283.3 C 2013 309.6 2012.8 319.6 2011.9 320.6 C 2011 321.8 2003.4 322 1966.6 322 C 1933.6 322 1922.1 321.7 1921.2 320.8 C 1920.3 319.9 1920 310.6 1920 285.1 C 1920 252.1 1920.1 250.4 1922.1 246.3 C 1924.7 241 1930.5 237.3 1939 235.7 C 1944.9 234.6 1945 234.5 1945 231.3 C 1945 229.5 1944.7 228.1 1944.3 228.2 C 1943.8 228.2 1935.2 228.7 1925 229.2 Z  M 1885.1 235 L 1893.9 235 L 1891.2 240.2 L 1888.5 245.4 L 1888.2 279 C 1887.9 312.1 1887.9 312.5 1885.7 314.2 C 1881 317.9 1881 318.1 1881 282.7 C 1881 245.4 1880.7 244.1 1873.6 238.4 C 1869.2 234.8 1869 233.6 1873.1 234.4 C 1874.8 234.7 1880.2 235 1885.1 235 Z  M 2022.3 235 L 2031.1 235 L 2028.3 239.7 L 2025.5 244.5 L 2025.2 278 L 2024.9 311.5 L 2022.2 313.7 C 2020.7 314.9 2019.2 315.9 2018.8 316 C 2018.3 316 2018 301.5 2018 283.7 C 2018 263.6 2017.6 250 2016.9 247.5 C 2016.2 244.8 2014.1 241.9 2010.7 238.6 L 2005.5 233.7 L 2009.5 234.3 C 2011.7 234.7 2017.5 235 2022.3 235 Z  M 1908 316.1 C 1913.2 319.4 1918.7 322.9 1920.2 323.8 C 1921.8 324.7 1923 325.8 1923 326.1 C 1923 326.6 1900.8 342 1898.8 342.8 C 1897.5 343.4 1873.9 326.7 1874.8 325.8 C 1876.7 323.9 1896.6 310.2 1897.5 310.1 C 1898.1 310.1 1902.8 312.8 1908 316.1 Z  M 2046.6 317.7 C 2053.4 321.9 2059 325.6 2059 326 C 2059 326.6 2037.3 341.7 2034.8 342.8 C 2034.4 343 2028.6 339.4 2022 334.8 L 2009.8 326.5 L 2013.1 324 C 2019.1 319.3 2032.5 310.2 2033.4 310.1 C 2033.9 310 2039.9 313.4 2046.6 317.7 Z  M 1885 338 L 1887.9 340.1 L 1888.2 376.3 C 1888.5 416 1888.6 416.4 1894.9 421.7 L 1897.5 423.9 L 1887 424 C 1881.2 424 1874.7 424.3 1872.5 424.6 L 1868.5 425.2 L 1872.8 421.5 C 1881.1 414.3 1881 415 1881 373 C 1881 352.7 1881.3 336 1881.6 336 C 1881.9 336 1883.5 336.9 1885 338 Z  M 2025 376.2 C 2025.6 415.4 2025.6 416 2031.1 421.1 L 2034.2 424 L 2024.2 424 C 2018.8 424 2012.1 424.3 2009.4 424.7 L 2004.5 425.3 L 2009 421.9 C 2017.7 415.2 2017.5 416.6 2017.8 373.7 L 2018.1 335.9 L 2021.3 337.9 L 2024.5 339.9 L 2025 376.2 Z " fill="rgb(0,0,0)"/><path d=" M 519.6 229.8 C 519.4 229.9 519.5 231.1 519.7 232.4 C 520.1 234.4 521.1 235 526.3 236 C 534.7 237.6 540.1 240.4 543 244.7 L 545.5 248.4 L 545.7 285.4 L 546 322.5 L 542 325.2 C 539.8 326.7 538 328.3 538 328.7 C 538 329.2 539.8 330.5 542 331.8 L 546.1 334.1 L 545.8 372.4 L 545.5 410.6 L 543 414.3 C 539.7 419.2 534.3 422 526.8 422.8 C 520.7 423.5 520.5 423.6 520.2 426.5 L 519.9 429.5 L 567.5 429.6 L 615 429.8 L 615 426.9 C 615 424.3 614.6 424.1 610.3 423.5 C 599.2 422 594.2 418.8 591.3 411.2 C 589.7 407 589.5 402.9 589.5 370.5 L 589.5 334.6 L 593.7 331.5 C 596 329.9 597.9 328.2 597.9 327.8 C 598 327.4 595.9 325.7 593.4 324 L 588.9 320.8 L 589.2 285.7 C 589.5 254.1 589.7 250.1 591.4 246.2 C 593.5 241.3 598.6 237.9 606.8 236 C 611.5 234.9 612 234.5 612 232.1 L 612 229.4 L 565.9 229.5 C 540.6 229.5 519.7 229.6 519.6 229.8 Z  M 555.3 235 L 564 235 L 561.3 239.2 L 558.5 243.3 L 558.2 278.6 L 557.9 313.9 L 555.3 316 C 553.9 317.1 552.4 318 551.9 318 C 551.5 318 551 302.4 550.8 283.2 C 550.4 244 550.4 244.1 542.8 237.5 L 538.5 233.8 L 542.5 234.4 C 544.7 234.7 550.4 235 555.3 235 Z  M 579.9 319.4 C 586.2 323.4 591.6 327.2 591.8 327.8 C 592.2 329.1 570.1 344 567.6 344 C 566.6 344 562.8 341.9 559.1 339.2 C 555.5 336.6 550.6 333.2 548.2 331.7 C 545.8 330.1 544 328.5 544.2 328 C 544.7 326.6 565.4 312.1 567 312.1 C 567.8 312.1 573.6 315.3 579.9 319.4 Z  M 555 340.5 L 558 342.1 L 558 376.5 C 558 414.6 558.3 416.7 564.2 421.4 L 567.2 423.7 L 552.9 424.2 C 545 424.5 538.4 424.6 538.3 424.5 C 538.1 424.4 539.7 423.2 541.7 421.9 C 543.8 420.6 546.6 417.5 548 415 L 550.5 410.5 L 550.8 374.7 C 551 355.1 551.3 339 551.6 339 C 551.9 339 553.4 339.7 555 340.5 Z " fill="rgb(0,0,0)"/><path d=" M 1280 232.1 C 1280 234.6 1280.5 234.9 1286.3 236 C 1294.7 237.6 1301 240.9 1303.5 245.1 C 1305.4 248.3 1305.5 250.5 1305.8 286.7 L 1306.1 324.8 L 1303 327 L 1300 329.1 L 1303.1 331.7 L 1306.1 334.3 L 1305.8 372.4 C 1305.5 406.5 1305.3 410.8 1303.7 413.7 C 1301.5 417.7 1294.9 421.7 1289 422.5 C 1280.3 423.7 1280 423.8 1280 426.8 L 1280 429.5 L 1326.8 429.6 C 1352.5 429.6 1387.3 430 1404.1 430.4 L 1434.8 431.1 L 1436.3 426.3 C 1438.8 418.7 1443.7 396.7 1446.1 382.6 C 1447.9 371.9 1448 369.6 1446.9 368.9 C 1446.1 368.4 1445.1 368.2 1444.7 368.3 C 1444.2 368.4 1441.9 373.7 1439.5 380 C 1434.4 393.7 1431.4 399.2 1425.3 406 C 1419.3 412.7 1414.1 416.1 1405 419.6 C 1397.5 422.4 1397.4 422.4 1373.5 422.4 L 1349.5 422.5 L 1349.2 378.3 L 1349 334.1 L 1351.2 332.6 C 1353.1 331.4 1355.5 331.3 1364.7 332 C 1380.8 333.2 1386.4 335.1 1392.1 341 C 1395.9 344.9 1397.3 347.4 1400 355.4 C 1403.3 365.4 1403.9 366.3 1405.7 365.2 C 1406.5 364.7 1406.6 360.3 1405.8 348.7 C 1404.9 335 1405.6 310.1 1407.2 297.5 C 1407.4 296.1 1406.9 295.5 1405.5 295.5 C 1403.9 295.5 1402.9 297.2 1400.5 304 C 1397.1 313.5 1394 318.2 1389.5 321 C 1384.4 324.1 1375.9 326.1 1364.9 326.7 C 1355.9 327.2 1354 327 1351.7 325.5 L 1349 323.8 L 1349.2 280.6 L 1349.5 237.5 L 1366.5 237.5 C 1379.9 237.5 1385.1 237.9 1391 239.4 C 1409.6 244.1 1420.9 254 1432.3 275.9 C 1435.5 282 1438.5 287 1438.8 287 C 1439.2 287 1440.1 286.6 1440.8 286.1 C 1442.9 284.8 1436.7 255.7 1430 235.5 L 1428 229.5 L 1354 229.5 L 1280 229.5 L 1280 232.1 Z  M 1312.1 235 L 1318 235 L 1318 275.8 L 1318 316.6 L 1315.1 318.8 C 1313.5 319.9 1312 320.6 1311.6 320.3 C 1311.3 319.9 1311 303.9 1311 284.6 C 1311 245.2 1310.8 244.1 1303.6 238.4 C 1299.2 234.8 1299 233.6 1303.1 234.4 C 1304.8 234.7 1308.9 235 1312.1 235 Z  M 1340 320.4 C 1346.3 324.5 1351.5 328.2 1351.5 328.8 C 1351.5 330.6 1328.1 346.2 1326.7 345.4 C 1326.1 345 1320.6 341.3 1314.7 337.2 C 1304.1 330 1303.9 329.7 1305.7 327.9 C 1308.3 325.2 1326.3 313 1327.5 313 C 1328.1 313 1333.7 316.4 1340 320.4 Z  M 1315.4 340.1 L 1318 342.1 L 1318 383.1 L 1318 424 L 1312.6 424 C 1309.7 424 1305.1 424.3 1302.4 424.7 L 1297.5 425.3 L 1302 421.9 C 1304.5 420 1307.5 416.5 1308.8 414 C 1311 409.7 1311 408.9 1311 373.8 C 1311 354.1 1311.4 338 1311.9 338 C 1312.3 338 1313.9 338.9 1315.4 340.1 Z " fill="rgb(0,0,0)"/><path d=" M 2115 232.1 C 2115 234.5 2115.5 234.8 2121 235.9 C 2128.4 237.4 2132.8 239.2 2135.9 242.1 C 2140.8 246.7 2141 248.4 2141 287 C 2141 306.8 2140.7 323 2140.3 323 C 2139.8 323 2138 324.3 2136.1 325.9 L 2132.6 328.7 L 2136.9 331.5 L 2141.1 334.3 L 2140.8 372.4 C 2140.5 407.7 2140.4 410.7 2138.6 413.6 C 2136 417.9 2129.7 421.8 2124.1 422.5 C 2115.4 423.6 2115 423.8 2115 426.8 L 2115 429.5 L 2162.5 429.6 L 2210 429.8 L 2210 426.9 C 2210 424.3 2209.6 424.1 2205.3 423.5 C 2194.2 422 2189.2 418.8 2186.3 411.2 C 2184.7 407 2184.5 402.9 2184.5 370.5 L 2184.5 334.6 L 2188.7 331.5 C 2191 329.9 2192.8 328 2192.6 327.5 C 2192.5 326.9 2190.4 325.2 2188.1 323.6 L 2183.9 320.8 L 2184.2 285.6 C 2184.5 254.1 2184.7 250.1 2186.4 246.2 C 2188.5 241.3 2193.6 237.9 2201.8 236 C 2206.5 234.9 2207 234.5 2207 232.1 L 2207 229.4 L 2161 229.5 L 2115 229.5 L 2115 232.1 Z  M 2150.3 235 L 2159 235 L 2156.3 239.2 L 2153.5 243.3 L 2153.2 278.6 L 2152.9 313.9 L 2150.3 316 C 2148.9 317.1 2147.4 318 2146.9 318 C 2146.5 318 2146 302.4 2145.8 283.2 C 2145.5 249.7 2145.4 248.4 2143.3 244.4 C 2142.1 242.1 2139.4 238.8 2137.3 237.1 L 2133.5 233.9 L 2137.5 234.4 C 2139.7 234.7 2145.4 235 2150.3 235 Z  M 2174.9 319.4 C 2181.2 323.4 2186.6 327.2 2186.8 327.8 C 2187.3 329.3 2163.1 345.2 2161.7 344.3 C 2155 340.2 2139 328.6 2139.2 328 C 2139.7 326.5 2160.4 312.1 2162 312.1 C 2162.8 312.1 2168.7 315.4 2174.9 319.4 Z  M 2150.8 341 C 2153 343.1 2153 343.4 2153 377 C 2153 414.6 2153.3 416.7 2159.4 421.5 L 2162.5 424 L 2152.4 424 C 2146.8 424 2140.1 424.3 2137.4 424.6 L 2132.5 425.2 L 2136.8 422 C 2139.1 420.2 2142.1 416.9 2143.3 414.6 C 2145.4 410.6 2145.5 409.4 2145.8 374.7 C 2146.1 336.7 2146.1 336.7 2150.8 341 Z " fill="rgb(0,0,0)"/><path d=" M 766 571 C 764.1 572 760.3 573.6 757.5 574.4 C 752.3 576 752.3 575.9 748.5 586 C 746.5 591.4 738.8 611.3 733.7 624 C 731.2 630.3 727.8 639.3 726 644 C 724.3 648.7 722.2 653.8 721.5 655.5 C 720.8 657.1 719 661.9 717.4 666 C 715.9 670.1 713.9 675.3 713 677.5 C 712 679.7 708.9 687.7 706 695.3 C 700.3 709.9 699.7 710.8 689.7 718 C 687.1 719.8 685 721.9 685 722.5 C 685 723.2 686.6 724.8 688.5 726.1 C 692.2 728.7 692.7 730.3 690.9 734.7 C 690.3 736.2 689.3 738.6 688.8 740 C 688.3 741.4 687.2 743.8 686.4 745.3 C 685.6 746.9 685 748.7 685 749.4 C 685 751 678.8 765.9 674.7 774 C 668.8 785.8 655.8 796.9 642.5 801.3 C 639.1 802.5 638.5 803.1 638.5 805.6 C 638.5 808.2 638.8 808.5 641.5 808.3 C 644.6 808 706.2 808.1 714 808.4 C 718.4 808.5 718.5 808.4 718.8 805.2 C 719 803.5 718.8 802 718.3 802 C 717.9 802 713.5 801.5 708.5 801 C 687.6 798.6 681.2 789.8 687.1 771.9 C 688.3 768.4 689.6 764.1 690 762.5 C 690.5 760.8 692.7 754.8 694.9 749 C 697.1 743.2 699 738 699 737.3 C 699 736.7 701.7 734.1 704.9 731.6 L 710.8 727 L 742.9 727 C 767.4 727 775.1 727.3 775.7 728.2 C 777.1 730.5 782 743.5 782 745.1 C 782 745.9 782.4 747 782.9 747.6 C 783.7 748.4 789.2 764.7 792.1 774.8 C 793.8 780.5 793.7 787.8 792.1 791.8 C 790.5 795.7 785.5 798.9 778.7 800.4 C 773.8 801.5 773.5 801.7 773.2 804.9 L 772.9 808.3 L 777.6 807.6 C 780.2 807.3 804.5 807 831.6 807 L 881 807 L 881 804.1 C 881 801.6 880.5 801 877.3 800 C 867.1 796.8 858.4 787.5 851.5 772.5 C 847.3 763.3 847.2 762.9 844.6 756 C 838.9 740.7 837.1 736.1 836.1 734.2 C 834 730.2 834.8 727.6 839 725 C 841.2 723.6 843 722.2 843 721.9 C 843 721.5 839.4 718.9 835.1 716.2 C 828.8 712.2 826.9 710.4 826.1 707.8 C 825 703.8 817.4 683.7 815.4 679.3 C 814.6 677.6 814 675.7 814 675.1 C 814 674.5 813.6 673.2 813.1 672.2 C 812.5 671.3 810 664.9 807.5 658 C 804.9 651.1 802.5 644.5 802 643.3 C 801.5 642.1 798.8 634.9 796 627.3 C 787 603.3 781.8 589.6 780.9 587.5 C 780.4 586.4 778.7 581.9 777.1 577.5 C 773.9 568.4 772.3 567.5 766 571 Z  M 754.6 618.5 C 756.5 624 759.9 633.4 762 639.5 C 766.7 652.9 774.8 675.9 778.4 686 C 779.9 690.1 782.5 697.5 784.2 702.4 L 787.3 711.3 L 784.6 713.7 C 783.1 715 781.3 716 780.6 716 C 779.9 716 778.3 713.2 777.1 709.7 C 775.9 706.3 774.5 702.7 774 701.8 C 773.4 700.8 773 699.2 773 698.2 C 773 697.2 772.6 696 772.1 695.5 C 771.7 694.9 769.4 689.1 767.2 682.5 C 763.2 671 757.5 655 754.4 646.5 C 753.5 644.3 752.6 641.6 752.4 640.5 C 752.1 639.4 751.4 637.6 751 636.5 C 750.5 635.4 748.9 631 747.4 626.8 C 744.8 619.2 744.8 619.1 746.5 613.8 C 749.5 604.7 749.6 604.8 754.6 618.5 Z  M 743.3 635.3 C 743.6 636.5 745.4 642 747.5 647.5 C 749.5 653 752.4 661.1 754 665.5 C 755.5 669.9 758.2 677.3 760 682 C 761.7 686.7 763.4 691.4 763.7 692.5 C 764 693.6 764.8 695.8 765.5 697.5 C 767.4 701.7 772.1 715.1 772.7 717.7 L 773.2 720 L 743.3 720 C 714.4 720 713.2 719.9 710.6 717.9 C 707.6 715.6 707.4 714.1 709.4 709.7 C 710.2 707.9 712.9 700.9 715.5 694 C 718.1 687.1 720.8 680.1 721.5 678.5 C 722.2 676.8 723.6 673.2 724.5 670.5 C 725.4 667.7 726.7 664.1 727.5 662.5 C 728.2 660.8 730 656.1 731.6 652 C 733.1 647.9 735.1 642.7 736 640.5 C 736.9 638.3 738.2 635.2 738.9 633.6 C 739.8 631.4 740.3 631 741.4 631.9 C 742.2 632.6 743 634.1 743.3 635.3 Z  M 811.8 706.2 C 824.2 713.2 835.5 720.8 835.5 722 C 835.5 723.5 809.3 740.8 806.9 740.9 C 804.8 741 777.8 723.2 778.2 722 C 778.5 721.1 804.8 703 805.8 703 C 806.1 703 808.8 704.4 811.8 706.2 Z  M 796.8 739.4 C 797.7 740.5 798 741.3 802.5 754 C 804 758.1 805.5 762.4 806 763.5 C 806.4 764.6 807.3 767.1 808 769 C 813.6 785 817.6 792 824.4 797.1 C 826.9 799 829 800.7 829 801 C 829 801.3 820.4 801.5 810 801.6 C 799.5 801.6 791 801.4 791 801 C 791 800.6 792.1 799.8 793.4 799.1 C 799.8 795.6 801.7 784.9 798 772.4 C 794.6 760.8 790.8 748.6 789.9 746.5 C 788 742.1 786 735.6 786 733.9 C 786 732.3 786.6 732.5 791 735.2 C 793.8 736.9 796.4 738.8 796.8 739.4 Z  M 678.4 785.3 C 677.6 790.8 679.8 796.2 683.9 798.6 C 685.6 799.6 687 800.8 687 801.2 C 687 801.6 680 802 671.5 802 C 663 802 656 801.7 656 801.2 C 656 800.4 662.6 796 663.9 796 C 665.2 796 676 783.8 676 782.2 C 676 781.6 676.7 781 677.5 781 C 678.6 781 678.8 781.9 678.4 785.3 Z " fill="rgb(0,0,0)"/><path d=" M 62.4 576.9 C 61.4 577.9 62.1 584.1 63.3 584.4 C 63.9 584.6 66.7 585.3 69.4 585.9 C 79.5 588.3 87.7 593.8 90.6 600.1 C 93.8 607 94.1 610.8 93.8 651 L 93.5 691.4 L 88.5 695.2 C 85.8 697.3 83.4 699.4 83.2 699.8 C 83.1 700.3 85.4 702.6 88.5 704.9 L 94.1 709.1 L 93.7 740.8 C 93.5 760 92.9 774.4 92.2 777.2 C 89.3 789.1 80 796.8 65 799.9 C 58.2 801.3 56.7 802.2 57.2 804.6 C 57.5 806.4 59.4 806.5 102.3 806.7 L 147.1 807 L 146.8 804.3 C 146.5 801.8 145.9 801.4 139.2 799.9 C 135.1 799 130.8 797.8 129.7 797.2 C 128.5 796.7 125.7 795.5 123.4 794.5 C 118.4 792.4 111.8 786.2 108.2 780.1 L 105.5 775.5 L 105.2 741.2 C 105 722 105.3 707 105.8 707 C 106.2 707 108.5 705.4 110.9 703.4 L 115.1 699.8 L 110 696.2 L 105 692.7 L 105 658.3 C 105 635.6 105.3 624.1 106 624.5 C 106.6 624.8 108.3 627.7 109.8 630.8 C 112.5 636.1 116.6 643.9 124.5 658.5 C 126.3 661.8 129.8 668.3 132.2 673 C 134.7 677.7 138.7 685.1 141 689.5 C 143.4 693.9 147.6 702 150.5 707.5 C 153.4 713 156.9 719.5 158.2 722 C 159.6 724.5 163.3 731.4 166.5 737.5 C 178.8 760.9 182.3 767.5 183 768.5 C 183.4 769 187.2 776.1 191.4 784.2 C 195.6 792.3 199.8 800.4 200.8 802.2 C 203.2 806.8 203.7 807.1 210.4 806.8 C 216.7 806.5 216.7 806.5 219.6 799.5 C 220.5 797.3 222 793.7 223 791.5 C 224 789.3 225.5 785.5 226.5 783 C 227.5 780.5 228.8 777.1 229.5 775.5 C 230.3 773.8 236.5 758.5 243.5 741.5 C 250.5 724.4 257.1 708.7 258 706.5 C 259 704.3 261.2 698.9 263 694.5 C 264.8 690.1 266.8 685.1 267.5 683.5 C 269.8 678.1 272.1 672.5 272.9 670.5 C 273.4 669.4 274.7 666.5 275.8 664 C 276.9 661.5 279 656.3 280.5 652.5 C 282 648.6 284 643.7 285 641.5 C 286 639.3 290.1 629.5 294.1 619.7 C 298.1 610 301.7 602 302.2 602 C 302.6 602 303 621.9 303 646.3 L 303 690.6 L 298.4 693.8 L 293.9 697 L 298.2 700.3 L 302.5 703.6 L 302.8 742.1 C 303.1 784.7 302.8 786.8 297.2 792.5 C 292.7 797 288.5 798.9 279.7 800.3 C 273 801.4 272.5 801.7 272.2 804.2 L 271.9 806.8 L 326.2 807.3 C 356.1 807.6 381.6 808 383 808.2 C 385 808.4 385.6 808 385.8 806.1 C 386.3 802.8 385.4 802.2 376.6 800.6 C 372.3 799.7 368.1 798.5 367.3 797.8 C 366.5 797.1 364.8 796.1 363.7 795.5 C 360.3 793.8 357.3 788.4 355.6 781 C 354.3 775.5 354 767.4 354 739.8 C 354 720.9 354.4 705 354.8 704.4 C 355.2 703.8 357.4 701.9 359.8 700.2 L 364.1 697.2 L 361.4 695.3 C 360 694.3 357.7 692.5 356.4 691.3 L 354 689.1 L 354 647.9 C 354 609.5 354.1 606.3 356 599.9 C 358.5 591.6 362.4 587.8 370.8 585.5 C 373.9 584.6 377.1 583.7 377.8 583.4 C 378.6 583.2 379 581.8 378.8 580 L 378.5 577 L 339.1 576.8 L 299.7 576.7 L 298.1 579.6 C 297.3 581.2 296 583.8 295.4 585.5 C 294.1 588.8 272.6 640.7 270.5 645.5 C 266.7 654.3 259 673 259 673.5 C 259 673.8 258.2 675.9 257.1 678.3 C 256.1 680.6 254 685.4 252.5 689 C 251 692.6 249 697.3 248.1 699.5 C 247.1 701.7 243 711.6 239 721.5 C 235 731.4 231.2 740.1 230.6 740.8 C 229.3 742.6 228.3 741.2 222.8 730.5 C 220.6 726.1 217.5 720.2 216 717.5 C 213 711.9 204.7 696.2 194.5 676.5 C 190.8 669.3 187.4 663.1 186.9 662.5 C 186.4 662 186 661 186 660.2 C 186 659.4 185.2 657.6 184.1 656.2 C 183.1 654.7 178.6 646.3 174 637.5 C 169.5 628.7 163.1 616.5 160 610.5 C 156.8 604.4 151.9 595 149 589.5 C 146.2 584 143.3 578.9 142.6 578.2 C 141.5 577.1 133.4 576.8 102 576.7 C 80.5 576.6 62.6 576.7 62.4 576.9 Z  M 102.2 583.9 C 103.7 584.4 105.8 587.2 107.8 591.1 C 109.6 594.6 112.3 599.7 113.8 602.5 C 115.4 605.2 119.2 612.4 122.5 618.5 C 125.7 624.5 129.5 631.7 131 634.5 C 132.5 637.2 136.1 644 139 649.5 C 141.9 655 145.5 661.7 147 664.5 C 150.9 671.8 157 683.1 163 694.5 C 165.9 700 169.7 707.2 171.5 710.5 C 175.2 717.4 181.3 728.8 187.8 741 C 190.2 745.7 193.3 751.3 194.5 753.5 C 195.7 755.7 199.5 762.9 203 769.5 C 206.5 776.1 209.7 781.9 210.1 782.4 C 211.4 783.8 211.2 787.9 209.7 792.3 C 207.4 798.7 206.4 798.8 203.5 792.9 C 202 789.9 199.5 785.2 198 782.5 C 196.5 779.7 192.9 773 190 767.5 C 180.2 749 178.3 745.5 174 737.5 C 171.6 733.1 167.8 725.9 165.5 721.5 C 163.2 717.1 160.1 711.5 158.8 709 C 155.1 702.3 144.8 683.1 136.5 667.5 C 133.9 662.5 131 657.1 130 655.5 C 129 653.8 125.8 647.8 122.7 642 C 117.3 631.6 111.7 621.1 104.3 607.3 C 98.4 596.2 94.6 591.4 89.1 587.8 C 86.3 586 84 584.2 84 583.7 C 84 582.7 99.4 582.8 102.2 583.9 Z  M 319.3 584 C 322.5 584 322.7 585.6 320.6 592.8 C 317.7 602.8 317 612.6 317 646.9 L 317 681.8 L 313.4 683.9 C 311.5 685.1 309.5 686 308.9 686 C 307.8 686 307.6 584.7 308.8 583.6 C 309.2 583.2 311.1 583.1 313 583.4 C 314.9 583.7 317.7 584 319.3 584 Z  M 340.5 685.3 C 345.5 688.6 350.7 692 352.2 693.1 C 353.7 694.1 355.4 695 356 695 C 356.5 695 357 695.8 357 696.7 C 357 698.6 333.2 715 329.5 715.7 C 327.2 716.2 301.7 699.2 301.2 696.9 C 301.1 696.1 302.9 694.3 305.2 692.9 C 307.6 691.4 313.7 687.5 318.8 684.2 C 325.1 680.1 328.7 678.4 329.8 678.8 C 330.7 679.2 335.6 682.1 340.5 685.3 Z  M 314 711.2 L 317 713.4 L 317 748 C 317 786.9 317.4 790.2 323.6 796.9 C 325.5 799 327 801 327 801.4 C 327 801.7 319.8 802 311 802 C 302.2 802 295 801.7 295.1 801.2 C 295.1 800.8 297 799.1 299.2 797.5 C 301.5 795.8 304.4 792.5 305.6 790 C 307.9 785.5 307.9 785.1 308 747.2 C 308 705.1 307.8 706.5 314 711.2 Z " fill="rgb(0,0,0)"/><path d=" M 997.5 577.1 C 991.5 577.5 968.4 577.9 946.3 578 L 906 578 L 906 581 C 906 584.2 906.2 584.3 915.5 585.5 C 922.2 586.4 930.1 590.3 932.9 594 C 937.5 600.3 938 605.5 938 644 L 938 679.9 L 935.8 682 C 934.5 683.2 932 685 930.3 686.1 C 928.5 687.3 927 688.3 927 688.5 C 927 688.6 929.5 690.6 932.5 692.9 L 938 697.1 L 938 736.5 C 938 776.8 937.6 781.8 934 789 C 930.7 795.4 919.5 801 909.8 801 C 906.3 801 906 801.2 906 804 L 906 806.9 L 954.8 807.2 C 1041 807.7 1045.3 807.5 1066.5 802 C 1078.2 798.9 1082.1 797.5 1094.2 791.5 C 1120 778.8 1140.7 755.7 1150.7 728.6 C 1156.3 713.3 1158.8 691.9 1157.1 674 C 1154.3 645.1 1142.5 622.5 1120.9 604.5 C 1114.3 598.9 1102 592 1091.5 587.9 C 1087.1 586.2 1082.6 584.4 1081.5 583.9 C 1076.2 581.7 1059.2 578.3 1046.1 577 C 1034.6 575.9 1014.2 575.9 997.5 577.1 Z  M 956.9 584.6 C 957.1 584.8 956.2 587.1 954.9 589.7 C 952.5 594.4 952.5 595.1 952 632.5 C 951.7 653.4 951.1 671.2 950.7 672 C 950.3 672.8 948.4 674.3 946.5 675.2 L 943 677 L 943 642.3 C 943 602.6 942.3 596.3 937.6 591.2 C 935.9 589.3 933.3 587.1 931.8 586.2 C 930.2 585.3 929 584.3 929 583.9 C 929 583.3 956.1 583.9 956.9 584.6 Z  M 1038.7 587.8 C 1056.4 594.1 1070.9 607.4 1081.6 627.5 C 1101.3 664.7 1102.9 721.2 1085.2 759 C 1077.7 775.1 1066.1 787.5 1052.8 793.9 C 1041.2 799.5 1032.2 801.3 1019.8 800.7 C 1006.9 800 999.4 796.7 994.3 789.4 C 989.2 782.2 989 780.5 989 735.8 L 989 694.1 L 993 691.9 C 995.2 690.6 997 689.1 997 688.5 C 997 687.9 995.3 686.2 993.3 684.9 L 989.5 682.5 L 989.2 644 C 989 617.6 989.3 604.2 990 601.5 C 991.9 594.7 995.6 590.1 1001.3 587.4 C 1006.2 585.1 1007.4 584.9 1019.5 585.3 C 1029.6 585.5 1033.9 586.1 1038.7 587.8 Z  M 1062.1 591.6 C 1074.6 597.7 1089.7 611.2 1097.5 623.5 C 1104.6 634.6 1110.7 650.3 1113.2 663.7 C 1114.8 672.3 1114.9 712.8 1113.3 722.5 C 1112.7 726.3 1111.5 731.7 1110.6 734.5 C 1109.7 737.2 1108.5 741.1 1107.9 743 C 1103.3 757.3 1090.2 775.6 1076.8 786.2 C 1071.5 790.3 1071 789.1 1075.7 783.8 C 1082.5 776.2 1085.7 771.7 1089.9 763.3 C 1103.3 736.7 1107.4 699.7 1101 663.5 C 1099.8 656.9 1097.2 646.7 1096 643.5 C 1095.6 642.4 1094.6 639.9 1093.9 638 C 1091.5 631.4 1085.8 620.5 1081.5 614.5 C 1076.7 607.7 1065.2 596.3 1060.3 593.5 C 1054.7 590.2 1056.2 588.8 1062.1 591.6 Z  M 977.5 679.2 C 984.9 683.7 991 688 991 688.7 C 991 689.4 988.6 691.5 985.8 693.3 C 982.9 695.1 976.6 699.2 971.9 702.3 C 967.2 705.4 962.5 708 961.6 708 C 960.7 708 957.6 706.3 954.7 704.2 C 951.8 702.1 946 698 941.8 695.1 C 937.5 692.3 934 689.4 934 688.7 C 934 686.8 960.1 669.8 962.2 670.3 C 963.2 670.6 970.1 674.6 977.5 679.2 Z  M 948.3 704.4 L 952 707.8 L 952 747.9 C 952 791.4 952.2 793.2 957.6 797.9 C 959 799.2 960 800.3 959.8 800.5 C 959.4 801 930 801.8 930 801.4 C 930 801.3 932.4 798.8 935.3 795.8 C 940.2 790.9 940.6 790 941.8 783.2 C 942.6 778.4 943 763.6 943 738.5 C 943 717.9 943.4 701 943.8 701 C 944.2 701 946.3 702.5 948.3 704.4 Z " fill="rgb(0,0,0)"/><path d=" M 1662.9 578.1 C 1661.6 580.6 1663.6 581.6 1671.5 582.4 C 1682.5 583.5 1689 585.8 1693.3 590 C 1696.5 593.3 1697 594.4 1697 598.4 C 1697 603.5 1695.2 611.9 1693.9 613.4 C 1693.4 614 1693 615.6 1693 617 C 1693 618.5 1692.7 619.9 1692.4 620.3 C 1692.1 620.6 1690.5 624.6 1688.9 629.2 C 1687.3 633.8 1685.6 638.4 1685.1 639.5 C 1683.7 642.5 1679 655.4 1679 656.3 C 1679 656.7 1678 659.1 1676.9 661.6 C 1675.3 664.9 1672.8 667.6 1667.4 671.6 C 1663.3 674.6 1660 677.4 1660 677.9 C 1660 678.4 1661.6 679.8 1663.6 681.1 C 1666.8 683.1 1667.2 683.6 1666.7 686.6 C 1666.4 688.4 1665.4 691.6 1664.5 693.7 C 1662.4 698.3 1662.3 698.7 1654.9 718 C 1653.2 722.7 1651.2 727.8 1650.5 729.5 C 1649.8 731.1 1647.8 736.3 1646 741 C 1644.2 745.7 1642.3 750.3 1641.8 751.3 C 1640.9 753.1 1640.8 753.1 1639.6 751.3 C 1638.9 750.3 1636.6 745 1634.5 739.5 C 1632.5 734 1630 727.7 1629.1 725.5 C 1628.1 723.3 1626.1 718.3 1624.5 714.5 C 1623 710.6 1621.4 706.6 1620.9 705.5 C 1620.4 704.4 1619.1 701.1 1618 698.2 C 1616.9 695.4 1615.1 690.8 1614 688 L 1612.1 683.1 L 1614.7 680 C 1616.1 678.3 1617.1 676.8 1616.9 676.6 C 1616.7 676.4 1614.5 675.1 1612 673.7 C 1606.9 670.9 1607 670.9 1603.5 661.5 C 1602 657.6 1600.5 653.6 1600 652.5 C 1598.1 648.5 1589.2 620.3 1588 615 C 1587.4 612 1586.4 608.1 1585.9 606.4 C 1584.3 601.1 1585.3 593.9 1588.3 589.2 C 1589.6 587.3 1596.7 583.9 1601.3 583.2 C 1604.8 582.6 1605.5 582 1605.8 580 L 1606.1 577.5 L 1548 577.5 L 1490 577.5 L 1490 580.1 C 1490 582.4 1490.8 583.1 1495.5 585 C 1503.4 588.2 1510.6 594.3 1515.4 601.9 C 1519.5 608.3 1527.3 625.2 1531.9 637.5 C 1533.2 640.8 1534.8 644.7 1535.6 646.2 C 1536.4 647.6 1537 649.3 1537 649.9 C 1537 650.5 1538.1 653.3 1539.4 656.2 C 1548.7 676.8 1548.7 673.3 1538.5 697.5 C 1537.8 699.1 1536.5 702.5 1535.5 705 C 1534.5 707.5 1533.2 710.8 1532.5 712.5 C 1531.8 714.1 1529.8 719.1 1528 723.5 C 1526.3 727.9 1524.4 732.4 1523.9 733.5 C 1521.2 739.6 1516.7 750.8 1516.3 752.7 C 1515 758.3 1513.2 755.3 1504.5 732.5 C 1503.1 728.6 1501 723.6 1499.9 721.3 C 1498.9 718.9 1498 716.6 1498 716 C 1498 715.5 1497.3 713.4 1496.4 711.3 C 1495.5 709.2 1494.3 706.5 1493.9 705.2 C 1493.4 704 1492.6 702 1492.1 700.7 C 1491 698.2 1486.6 686.5 1485.6 683.6 C 1485.2 682.4 1485.7 680.9 1487.1 679.4 C 1489.6 676.8 1489.1 675.6 1484.6 673.5 C 1481.5 672 1479.4 668.6 1476 659.5 C 1475.6 658.4 1474.6 655.7 1473.7 653.5 C 1472.9 651.3 1471.3 647 1470.2 644 C 1469.1 641 1467 635.3 1465.6 631.5 C 1464.2 627.6 1463 623.8 1463 622.9 C 1463 622.1 1462.6 621 1462.1 620.5 C 1461.2 619.5 1458.7 610 1457.5 602.9 C 1455.9 594.2 1461.5 586.1 1470.5 583.9 C 1473.3 583.3 1476.1 582.6 1476.8 582.4 C 1477.4 582.2 1478 581 1478 579.8 L 1478 577.5 L 1420.3 577.6 L 1362.5 577.6 L 1362.2 580.2 C 1361.9 582.4 1362.5 583 1366.1 584.4 C 1374.3 587.7 1383.7 595.6 1388.8 603.5 C 1395.1 613.1 1398.3 619.9 1409 645.5 C 1409.4 646.6 1411 650.1 1412.4 653.3 C 1413.8 656.5 1415 659.3 1415 659.5 C 1415 659.8 1415.9 662.2 1417.1 664.8 C 1421.5 674.8 1422 676.1 1422 677.4 C 1422 678.2 1421.3 679 1420.5 679.4 C 1418 680.3 1418.8 682.4 1422.8 684.7 C 1425.7 686.3 1427.1 688.1 1428.9 692.7 C 1430.2 695.9 1431.8 699.8 1432.5 701.5 C 1433.2 703.1 1436.6 711.2 1440 719.5 C 1447.1 736.6 1447.8 738.4 1451.4 746.3 C 1452.8 749.5 1454 752.4 1454 752.9 C 1454 753.3 1454.6 755 1455.4 756.6 C 1456.2 758.2 1459.6 766.2 1463 774.5 C 1466.4 782.7 1469.8 790.8 1470.5 792.5 C 1471.2 794.1 1472.8 798 1474 801 C 1477.4 809.4 1476.7 809.1 1491.4 808.8 C 1506.6 808.5 1504.1 810.5 1511.6 791.5 C 1518.3 774.3 1522 764.9 1523.5 761.5 C 1524.2 759.8 1526 755.1 1527.6 751 C 1529.1 746.9 1531.1 741.7 1532 739.5 C 1533 737.3 1534.4 733.7 1535.3 731.5 C 1536.7 727.8 1545.3 706 1550.3 693.2 C 1552.5 687.8 1553.7 686.8 1554.6 689.7 C 1555 690.7 1556.1 693.4 1557.1 695.7 C 1558.1 698.1 1559 700.2 1559 700.5 C 1559 700.9 1565.9 717.6 1570.5 728.5 C 1571.2 730.1 1574.1 737.1 1577 744 C 1582 756.1 1585.4 764.1 1589 772.5 C 1589.9 774.7 1593.6 783.5 1597.1 792 C 1600.6 800.5 1603.9 807.8 1604.5 808.3 C 1605 808.7 1611.3 808.9 1618.4 808.8 L 1631.4 808.5 L 1634.7 800 C 1636.5 795.3 1639 788.8 1640.1 785.5 C 1641.3 782.2 1643.7 775.7 1645.5 771 C 1647.3 766.3 1651.1 756.2 1653.9 748.5 C 1656.8 740.8 1659.5 733.6 1660 732.5 C 1660.5 731.4 1661.6 728.5 1662.4 726 C 1663.2 723.5 1664.3 720.4 1664.8 719 C 1666.2 715.8 1674.7 693 1675.3 691 C 1675.6 690.1 1679 687.3 1682.9 684.7 C 1694 677.2 1694 677.2 1688.6 674.2 C 1685.5 672.5 1684 671 1684 669.6 C 1684 667.8 1690.7 649.1 1694.5 640.5 C 1695.2 638.8 1696.6 635.2 1697.5 632.5 C 1702.5 617.5 1709.5 604.6 1716.8 596.8 C 1720.3 593.1 1723.7 590 1724.2 590 C 1724.7 590 1726.3 589.1 1727.8 588 C 1730.6 586 1740.1 582.6 1746.5 581.4 C 1749.9 580.8 1750.8 579.6 1749.2 577.5 C 1748.8 576.9 1733.2 576.5 1706.2 576.5 C 1667.9 576.5 1663.7 576.7 1662.9 578.1 Z  M 1411 585.5 C 1411 585.8 1410.3 587.7 1409.5 589.7 C 1407.8 593.7 1407.5 605.5 1409 606.5 C 1409.6 606.8 1410 608.2 1410 609.5 C 1410 611.6 1419.5 636.4 1424.7 648 C 1430.6 661 1433.1 667.7 1432.6 669.5 C 1432 672 1427.4 674.8 1426.1 673.4 C 1425.6 672.9 1423.5 668.4 1421.5 663.5 C 1419.5 658.5 1417 652.6 1415.9 650.3 C 1414.9 648 1414 645.9 1414 645.5 C 1414 645.2 1413 642.8 1411.9 640.2 C 1409 633.8 1408 631.4 1402.5 618.2 C 1396.8 604.5 1392 597 1385.2 590.8 C 1382.3 588.3 1380 585.9 1380 585.6 C 1380 585.3 1387 585 1395.5 585 C 1404 585 1411 585.2 1411 585.5 Z  M 1537.3 589.6 C 1536.2 593 1535.9 596.3 1536.3 601.9 C 1537 610.8 1539.6 619.4 1547 637.5 C 1547.5 638.6 1549.1 642.6 1550.5 646.4 C 1552 650.2 1553.6 654.1 1554 654.9 C 1555.7 658.3 1557.9 663.6 1558.5 666.3 C 1559.1 668.5 1558.7 669.7 1556.9 671.6 C 1553.7 675 1552.5 674.6 1550.5 669.2 C 1549.5 666.6 1548.2 663.1 1547.5 661.5 C 1546.8 659.8 1543.9 652.9 1541.2 646 C 1523.5 601.9 1522.5 600 1512.7 590.8 L 1506.5 585 L 1522.7 585 L 1538.9 585 L 1537.3 589.6 Z  M 1467.5 668 C 1474.1 671.4 1480.5 674.8 1481.7 675.4 C 1483 676 1484 676.9 1484 677.5 C 1484 678 1480.5 681 1476.3 684 C 1472.2 687 1465.8 691.7 1462.2 694.4 C 1456.4 698.6 1455.4 699.1 1453.6 698 C 1452.5 697.3 1449.8 695.7 1447.6 694.5 C 1445.3 693.2 1440.8 690.5 1437.5 688.5 C 1434.2 686.4 1430.3 684 1428.8 683.1 C 1427.2 682.2 1426 681 1426 680.5 C 1426.1 679.9 1428 678.1 1430.3 676.4 C 1432.6 674.7 1437.2 671.3 1440.5 668.9 C 1449.5 662.2 1453.4 660.1 1454.5 661 C 1455 661.4 1460.9 664.6 1467.5 668 Z  M 1589.7 665.1 C 1605.5 673.3 1610 676.1 1610 677.3 C 1610 678 1607.1 680.6 1603.7 683.1 C 1586.6 695.8 1582.6 698.5 1581.6 698.2 C 1578.5 697.2 1553 681.3 1553 680.3 C 1553 679.7 1557.4 675.9 1562.8 671.9 C 1568.1 668 1573.9 663.7 1575.5 662.4 C 1577.2 661.1 1578.8 660.1 1579.2 660 C 1579.6 660 1584.3 662.3 1589.7 665.1 Z  M 1454.4 718.6 C 1459.3 730.1 1464 741.3 1465 743.5 C 1465.9 745.7 1468 750.4 1469.5 754 C 1471 757.6 1472.9 761.8 1473.6 763.5 C 1478 772.8 1490 801.7 1490 802.7 C 1490 803.6 1488.5 804 1485.7 804 L 1481.4 804 L 1478.3 797.2 C 1476.6 793.5 1472.4 783.7 1469 775.5 C 1465.6 767.2 1462 758.7 1461 756.5 C 1460.1 754.3 1458.1 749.8 1456.7 746.5 C 1455.3 743.2 1453.2 738.3 1452 735.6 C 1450.8 732.9 1449 728.5 1447.9 725.7 C 1446.8 722.9 1445 718.7 1443.9 716.4 C 1442.9 714 1442 711.9 1442 711.6 C 1442 711.3 1440.9 708.7 1439.6 705.8 C 1435.2 696.2 1434 692.8 1434.5 691.9 C 1434.8 691.5 1437.4 692.6 1440.3 694.4 L 1445.5 697.7 L 1454.4 718.6 Z  M 1573 699.5 C 1573.4 700.6 1574.7 703.7 1575.9 706.3 C 1581.3 718.5 1582 720 1582 720.5 C 1582 720.9 1583 723.2 1589.4 737.3 C 1590.8 740.5 1592 743.3 1592 743.5 C 1592 743.8 1592.9 746.2 1594.1 748.8 C 1600.8 763.8 1603 768.9 1603 769.5 C 1603 769.7 1604.2 772.5 1605.6 775.7 C 1608.5 782.1 1609.7 785 1613.1 793 C 1614.3 796 1615.7 798.9 1616.2 799.5 C 1616.6 800 1617 801.2 1617 802.3 C 1617 803.8 1616.3 804.1 1612.3 803.8 L 1607.7 803.5 L 1604.2 795.5 C 1602.3 791.1 1600.4 786.6 1599.9 785.5 C 1598.7 782.7 1586.1 752.5 1581.5 741.5 C 1579.5 736.5 1576.7 730.1 1575.4 727.2 C 1574.1 724.3 1573 721.7 1573 721.5 C 1573 721.2 1572.1 718.8 1570.9 716.2 C 1569.7 713.6 1568.4 710.6 1568 709.5 C 1567.5 708.4 1566.2 705.2 1565 702.5 C 1562.2 696.2 1561 692.3 1561.7 691.7 C 1562.6 690.8 1572.2 697.4 1573 699.5 Z " fill="rgb(0,0,0)"/><path d=" M 2094.8 577.6 C 2094.4 577.9 2074.3 578.1 2050.1 578.1 L 2006 578.1 L 2006 580.9 C 2006 584 2007.4 585 2012 585 C 2013.5 585 2017.7 585.9 2021.2 587 C 2028.4 589.2 2034.6 594.3 2035.6 598.8 C 2035.9 600.3 2036.6 602.8 2037.1 604.4 C 2037.6 606 2038 623.4 2038 643.2 L 2038 679 L 2033 682.6 C 2030.3 684.6 2028 686.5 2028 686.8 C 2028 687.2 2030.3 689 2033 690.8 L 2038 694 L 2038 735 C 2038 777.4 2037.6 782 2033.6 789.8 C 2031.3 794.2 2023.8 798.2 2014.5 800.1 C 2007.1 801.6 2006.5 801.9 2006.2 804.3 L 2005.9 807 L 2072.2 807 C 2108.7 807 2149.1 807.5 2162 808 C 2186.7 808.9 2188 808.8 2188 804.6 C 2188 803.5 2188.8 800.5 2189.6 798 C 2191.4 793 2195.7 775.9 2197 769 C 2197.4 766.5 2198.5 760.7 2199.4 756 C 2200.3 751.3 2201 746 2201 744.2 C 2201 741 2200.9 740.9 2197.4 741.2 C 2195.3 741.4 2193.4 742.2 2193 743 C 2192.5 743.8 2190.3 748.9 2188 754.3 C 2185.6 759.6 2181.8 766.6 2179.5 769.8 C 2174.8 776.1 2166.5 784.4 2162.9 786.6 C 2156.1 790.4 2145.2 795.2 2141.1 796.1 C 2138.6 796.6 2134.2 797.5 2131.4 798 C 2128.6 798.6 2117.8 798.9 2107.4 798.8 L 2088.5 798.5 L 2088.2 748 C 2088.1 720.2 2088.2 696.5 2088.5 695.3 C 2088.8 694.2 2091 691.9 2093.5 690.3 C 2096 688.8 2098 687.2 2098 686.8 C 2098 686.4 2096.3 685 2094.2 683.6 C 2087.4 679.4 2087.8 681.8 2088.2 640.8 C 2088.4 616.3 2088.9 602.8 2089.6 601.5 C 2090.2 600.4 2091.5 597.9 2092.4 596 C 2094.6 591.4 2101.1 587.4 2109.6 585.4 C 2113.4 584.5 2117.1 583.6 2117.8 583.4 C 2118.4 583.2 2119 581.7 2119 580 L 2119 577 L 2107.2 577 C 2100.7 577 2095.1 577.3 2094.8 577.6 Z  M 2058.9 583.9 C 2059.2 584 2058.4 585 2057.2 586.3 C 2052.2 591.6 2052 593.5 2052 631.2 C 2052 650.6 2051.7 667.5 2051.4 668.7 C 2050.9 670.6 2045.5 675 2043.7 675 C 2043.4 675 2042.9 658.9 2042.7 639.2 C 2042.5 615.3 2041.9 601.9 2041.1 598.8 C 2039.8 593.9 2037.2 590.5 2031 585.7 L 2027.5 583 L 2043 583.4 C 2051.5 583.7 2058.7 583.9 2058.9 583.9 Z  M 2068 671.8 C 2080.7 679.5 2089 685.3 2089 686.5 C 2089 687.8 2064.7 703 2062.6 703 C 2060.4 703 2037.5 687.9 2037.5 686.5 C 2037.5 685 2060.5 669 2062.5 669 C 2063.1 669 2065.5 670.3 2068 671.8 Z  M 2048.9 700.9 L 2052 703.8 L 2052 746.1 L 2052 788.3 L 2054.5 792.5 C 2055.8 794.8 2058.1 797.5 2059.5 798.4 C 2060.9 799.3 2062 800.5 2062 801 C 2062 801.6 2055.5 802 2045.4 802 C 2028 802 2026.3 801.5 2032.6 798 C 2036.9 795.6 2040.6 789.5 2041.9 782.5 C 2042.6 778.5 2043 762.2 2043 737.1 C 2043 694.1 2042.8 695.2 2048.9 700.9 Z " fill="rgb(0,0,0)"/><path d=" M 2310.8 577.5 C 2310.5 577.9 2290.3 578.1 2266.1 578.1 L 2222 578 L 2222 581 C 2222 583.6 2222.4 584 2225.8 584.5 C 2240.2 586.6 2247.3 590 2251.5 597.1 C 2253.4 600.3 2253.5 602.6 2253.8 640 L 2254.1 679.6 L 2249.5 682.8 C 2247 684.5 2245 686.4 2245 686.9 C 2245 687.5 2247 689.1 2249.5 690.6 L 2254 693.2 L 2254 736.2 C 2254 763.8 2253.6 780.7 2252.9 783.4 C 2250.6 792.6 2243 798.1 2229.6 800.4 C 2223.1 801.5 2222.5 801.8 2222.2 804.1 L 2221.9 806.7 L 2307.2 807.4 C 2354.1 807.8 2394.9 808.2 2397.8 808.3 L 2403.2 808.5 L 2404.6 804 C 2410.6 784.7 2416.5 758.4 2417.7 745.7 L 2418.2 740.9 L 2413.9 741.2 C 2410 741.5 2409.6 741.8 2408.4 745.2 C 2400.8 767.2 2388.4 782.6 2371.5 791 C 2358.7 797.3 2347.4 799.2 2323.5 798.8 L 2305.5 798.5 L 2305.5 746 L 2305.5 693.5 L 2310.2 690.5 C 2312.8 688.8 2315 687.2 2315 686.9 C 2315 686.5 2312.8 684.8 2310 683 L 2305 679.8 L 2305 643.6 C 2305 604.5 2305.5 600 2310.4 593.6 C 2313 590.1 2319.2 586.7 2325 585.5 C 2335.3 583.5 2336.1 583 2335.8 580.2 L 2335.5 577.5 L 2323.4 577.2 C 2316.8 577.1 2311.1 577.2 2310.8 577.5 Z  M 2275 584.6 C 2275 585.2 2274.1 586.5 2273.1 587.4 C 2268.5 591.5 2268 596.6 2268 634.3 L 2268 669.7 L 2265.8 671.7 C 2264.5 672.8 2262.5 674.1 2261.3 674.5 L 2259 675.1 L 2259 638.1 C 2259 602.3 2258.9 600.8 2256.9 596.5 C 2255 592.4 2247.8 585 2245.8 585 C 2245.4 585 2245 584.6 2245 584.1 C 2245 583.5 2251.1 583.2 2260 583.3 C 2270.1 583.4 2275 583.9 2275 584.6 Z  M 2305.8 686.3 C 2305.9 687 2300 691.2 2292.6 695.6 L 2279.1 703.7 L 2272.5 699.4 C 2268.8 697 2265.6 695 2265.4 695 C 2263.9 695 2254 687.7 2254 686.5 C 2254 685.8 2259.7 681.3 2266.6 676.7 L 2279.2 668.2 L 2292.3 676.6 C 2299.6 681.3 2305.6 685.6 2305.8 686.3 Z  M 2265.1 700.1 L 2268 702.1 L 2268 744 C 2268 791 2268.1 791.4 2275.3 797.6 C 2277.3 799.3 2278.7 801 2278.3 801.3 C 2277.2 802.4 2245 802.1 2245 801 C 2245 800.4 2245.4 800 2245.8 800 C 2247.7 800 2255.2 792.5 2257 788.7 C 2258.9 784.8 2259 782.4 2259 741.3 C 2259 693.5 2258.7 695.5 2265.1 700.1 Z " fill="rgb(0,0,0)"/><path d=" M 425 581.1 C 425 584 425.1 584.1 435 585.6 C 441.7 586.6 449.4 590.3 451.9 593.8 C 456.5 600.3 457 605.3 457 647 L 457 685.9 L 453.3 689 L 449.5 692.1 L 453.3 695.2 L 457 698.2 L 457 736.3 C 457 761.7 456.6 776.4 455.8 780.4 C 453.5 792.4 447 797.9 432.7 800.2 C 425.2 801.4 425 801.5 425 804.2 L 425 807 L 483.8 807 C 516.2 807 557.6 807.5 576 808.1 C 603.4 809 609.4 808.9 610.1 807.8 C 610.6 807.1 611.7 804 612.5 801 C 613.4 798 614.5 794.1 615 792.5 C 617.3 784.7 622.3 760.7 624.4 748.1 C 625.6 740.6 625.7 738.4 624.7 737.8 C 622.1 736.1 620.6 737.7 618.3 744.5 C 617.1 748.3 615.6 752.4 615.1 753.5 C 614.6 754.6 613 758.2 611.5 761.4 C 608.1 769 603.9 775.3 598.1 781.3 C 583.8 796.3 563.7 801.6 523.5 800.8 L 508.5 800.5 L 508.5 748 L 508.5 695.5 L 521.5 695.2 C 550.5 694.6 562.8 701.8 568.9 723 C 571.5 732 572.2 733.1 574.4 732.8 C 576.2 732.5 576.4 732 576 729 C 575.2 723.1 575.5 666.9 576.4 660.4 C 577 656.3 576.9 654.1 576.2 653.6 C 574.2 652.4 572.3 654.1 571 658.3 C 566.4 674.1 560.4 681.9 549.9 685.8 C 538.8 689.9 515.2 691.5 510.5 688.4 L 508 686.8 L 508 636.3 L 508 585.8 L 528.8 586.3 C 540.2 586.6 551.3 587.4 553.5 588 C 555.7 588.6 559.5 589.5 561.9 590.1 C 564.3 590.6 569.5 592.5 573.4 594.4 C 586.4 600.7 596.1 610.8 605.6 628 C 613.7 642.8 613.8 643 616 643 C 617 643 618.1 642.7 618.3 642.2 C 618.6 641.8 617.9 637.4 616.9 632.5 C 615.8 627.5 614.6 621.5 614.1 619 C 613.6 616.5 611.5 608.9 609.5 602 C 607.5 595.1 605.6 588.6 605.3 587.5 C 605.1 586.4 604.5 584.6 604 583.5 C 603.6 582.4 602.9 580.7 602.6 579.8 C 602.1 578.1 596.8 578 513.5 578.2 L 425 578.3 L 425 581.1 Z  M 470.1 584.6 C 470.6 584.9 471 605.7 471 630.9 L 471 676.7 L 467.8 679.4 C 461.8 684.3 462 685.5 462 645.2 C 462 598.1 461.2 593.5 451.1 586.6 C 448.9 585 447 583.5 447 583.2 C 447 582.6 469 583.9 470.1 584.6 Z  M 485.9 675.7 C 492 679.4 494.3 680.7 503.3 685.9 C 507.6 688.4 511 690.9 511 691.6 C 511 693 485.4 710.2 482.4 710.8 C 480.9 711.1 477.6 709.4 472.5 705.8 C 461.7 698.4 460.8 697.7 457.2 695.5 C 455.5 694.4 454 692.8 454.1 692 C 454.1 690.8 479 673.3 480.9 673 C 481.1 673 483.4 674.2 485.9 675.7 Z  M 465.3 703.1 C 471.1 706.1 471 704.5 471 753.3 C 471 782.3 470.6 798.8 470 800.1 C 469 801.8 467.8 802 458.5 802 C 452.7 802 448 801.6 448 801.2 C 448 800.7 450 798.9 452.5 797.1 C 461.4 790.7 462 787.3 462 740 C 462 719.1 462.3 702 462.6 702 C 462.9 702 464.1 702.5 465.3 703.1 Z " fill="rgb(0,0,0)"/><path d=" M 1773 581.1 C 1773 583.9 1774.9 585 1779.9 585 C 1781.3 585 1785 585.7 1788.2 586.6 C 1796.1 588.8 1802.4 594.4 1803.9 600.4 C 1804.6 603.4 1805 618.8 1805 645.6 L 1805 686.4 L 1801.8 689.2 L 1798.5 692 L 1801.8 694.7 L 1805 697.5 L 1805 738.6 C 1805 771.8 1804.7 780.6 1803.5 784.6 C 1800.8 793.6 1794.4 798.1 1781.3 800.3 C 1774 801.5 1773.5 801.8 1773.2 804.3 L 1772.9 807 L 1832.3 807 C 1865 807 1906.5 807.5 1924.5 808.1 C 1958.9 809.2 1959.2 809.1 1960.3 804.7 C 1960.6 803.5 1962 798.2 1963.5 793 C 1965 787.8 1966.5 781.7 1967 779.5 C 1967.4 777.3 1968.7 771.2 1969.8 766 C 1970.9 760.8 1972.4 752.5 1973.1 747.7 C 1974.2 740.1 1974.1 738.7 1972.9 737.9 C 1972.1 737.4 1971.2 737 1970.8 737 C 1970 737 1968 741.4 1965.5 748.9 C 1960.5 763.7 1950.9 778.9 1941.9 786 C 1933.5 792.6 1927.5 795.3 1913.5 798.6 C 1906.9 800.1 1863.2 801.8 1858.7 800.6 L 1856 800 L 1856 748.7 C 1856 710.1 1856.3 697.1 1857.2 696.2 C 1858 695.4 1862.6 695 1871.5 695 C 1884.7 695 1894.9 696.8 1902.1 700.5 C 1909.1 704.2 1915.2 713.5 1918.6 725.9 C 1920.4 732.1 1921.7 733.7 1924.3 732.7 C 1925.4 732.3 1925.4 730.5 1924.4 722.3 C 1922.6 708.9 1922.7 685.8 1924.6 668.8 C 1925.8 657.2 1925.9 654.5 1924.8 653.9 C 1922.5 652.4 1921.5 653.5 1918.9 661.1 C 1912.5 679.9 1906.4 685.2 1887.6 688.5 C 1882.7 689.3 1874.9 690 1870.3 690 C 1863.3 690 1861.3 689.6 1858.9 687.9 L 1856 685.9 L 1856.2 636.2 L 1856.5 586.5 L 1877 586.6 C 1894.7 586.6 1898.7 587 1906.5 588.9 C 1930.6 594.9 1943.6 606.7 1958.7 636.2 C 1961.6 641.9 1962.6 643 1964.7 643 C 1967.1 643 1967.2 642.8 1966.7 638.2 C 1965.9 630 1961.3 611.8 1954.4 589.3 L 1950.9 578 L 1861.9 578.2 L 1773 578.3 L 1773 581.1 Z  M 1811.3 583.6 L 1819 584.3 L 1819 631.1 L 1819 677.9 L 1816 679.7 C 1814.4 680.6 1813 681.8 1813 682.2 C 1813 682.6 1812.3 682.7 1811.5 682.4 C 1810.2 681.9 1810 676.4 1810 642.1 C 1810 597 1809.9 596.1 1802.9 589.3 C 1800.5 586.9 1798 585 1797.3 585 C 1796.6 585 1796 584.5 1796 584 C 1796 582.8 1800.6 582.7 1811.3 583.6 Z  M 1839.1 678.3 C 1843.7 681.1 1849.2 684.4 1851.3 685.5 C 1853.4 686.6 1856.3 688.5 1857.8 689.8 C 1860.5 692 1860.5 692 1858.5 693.6 C 1851.8 698.7 1831.9 711 1830.4 711 C 1829.3 711 1825.4 708.8 1821.5 706.2 C 1817.7 703.6 1811.7 699.5 1808.3 697.1 C 1804.9 694.8 1802.3 692.4 1802.6 691.7 C 1803 690.7 1812.5 683.9 1819.8 679.5 C 1820.7 678.9 1823.2 677.3 1825.3 675.7 C 1827.5 674.2 1829.6 673 1830 673 C 1830.3 673 1834.4 675.4 1839.1 678.3 Z  M 1815.7 704.6 L 1819 707.1 L 1818.8 754.3 L 1818.5 801.5 L 1807.3 801.8 C 1801.1 801.9 1796 801.7 1796 801.2 C 1796 800.8 1797.4 799.6 1799.1 798.6 C 1803.2 796.2 1807.2 791.6 1808.7 787.7 C 1809.5 785.4 1809.9 772.3 1809.9 743.9 C 1810 721.6 1810.3 703 1810.7 702.7 C 1811.7 701.7 1812 701.8 1815.7 704.6 Z " fill="rgb(0,0,0)"/></g></svg>