<?xml version="1.0" encoding="UTF-8" standalone="no"?><!-- Generator: Gravit.io --><svg xmlns="http://www.w3.org/2000/svg" xmlns:xlink="http://www.w3.org/1999/xlink" style="isolation:isolate" viewBox="42.375 60.937 15.974 64.563" width="15.974pt" height="64.563pt"><path d=" M 50.362 61.441 Q 43.207 61.433 43.192 61.441 C 41.999 62.021 44.563 62.774 44.549 62.853 Q 42.558 68.352 46.06 69.915 Q 44.23 71.571 44.626 72.74 C 45.022 73.909 45.362 74.017 47.494 74.152 C 45.66 75.482 41.975 93.619 43.192 98.164 Q 44.409 102.709 47.494 105.226 Q 43.842 112.818 44.626 115.113 Q 45.41 117.408 46.06 116.525 Q 44.23 118.181 44.626 119.35 Q 45.022 120.52 46.06 120.763 Q 49.243 123.898 50.362 125 M 50.362 61.441 Q 57.518 61.433 57.533 61.441 C 58.726 62.021 56.162 62.774 56.176 62.853 Q 58.166 68.352 54.665 69.915 Q 56.495 71.571 56.099 72.74 C 55.703 73.909 55.362 74.017 53.231 74.152 C 55.065 75.482 58.75 93.619 57.533 98.164 Q 56.316 102.709 53.231 105.226 Q 56.883 112.818 56.099 115.113 Q 55.315 117.408 54.665 116.525 Q 56.495 118.181 56.099 119.35 Q 55.703 120.52 54.665 120.763 Q 51.482 123.898 50.362 125" fill-rule="evenodd" fill="none" vector-effect="non-scaling-stroke" stroke-width="1" stroke="rgb(0,0,0)" stroke-linejoin="miter" stroke-linecap="square" stroke-miterlimit="3"/></svg>