<?xml version="1.0" encoding="UTF-8" standalone="no"?><!-- Generator: Gravit.io --><svg xmlns="http://www.w3.org/2000/svg" xmlns:xlink="http://www.w3.org/1999/xlink" style="isolation:isolate" viewBox="46.296 0 8.132 60" width="8.132pt" height="60pt"><g><path d=" M 53.597 60 L 48.721 60 C 49.124 58.124 48.997 58.029 49.848 55.979 C 50.336 54.803 50.912 53.671 51.473 52.573 C 52.133 51.279 52.811 49.946 53.355 48.518 C 55.231 54.775 53.826 59.132 53.597 60 Z " fill="rgb(0,0,0)"/><path d=" M 47.816 60 L 47.122 60 C 46.92 59.614 46.461 57.311 46.416 56.936 C 46.243 55.469 46.259 53.906 46.455 52.287 C 46.607 51.061 46.853 49.856 47.206 48.613 C 47.217 48.596 47.223 48.579 47.223 48.557 C 47.699 46.927 48.326 45.37 49.026 43.874 C 49.726 42.379 50.494 40.934 51.256 39.511 L 51.429 39.181 C 52.068 37.982 52.79 36.565 53.384 35.047 C 53.983 36.739 54.286 38.665 54.286 40.592 C 54.286 42.446 54.006 44.3 53.44 45.941 C 53.418 46.008 53.395 46.076 53.373 46.149 C 53.373 46.149 53.373 46.149 53.367 46.149 C 52.813 47.706 52.073 49.156 51.362 50.557 C 50.796 51.654 50.214 52.791 49.726 53.984 C 48.864 56.068 48.22 58.09 47.816 60 Z " fill="rgb(0,0,0)"/><path d=" M 47.056 45.941 C 46.916 45.28 46.781 44.491 46.669 43.684 C 46.4 41.617 46.384 39.545 46.624 37.523 C 46.787 36.195 47.078 34.907 47.515 33.585 C 48.288 31.261 49.375 29.244 50.528 27.105 C 51.223 25.817 51.945 24.483 52.584 23.083 C 53.06 22.03 53.413 21.151 53.687 20.294 C 53.973 21.291 54.158 22.377 54.264 23.419 C 54.376 24.461 54.416 25.464 54.421 26.293 C 54.432 28.292 54.046 30.32 53.228 32.499 C 53.211 32.527 53.195 32.555 53.195 32.588 C 52.584 34.207 51.811 35.725 51.133 36.996 L 50.96 37.321 C 49.515 40.038 48.019 42.844 47.056 45.941 Z " fill="rgb(0,0,0)"/><path d=" M 47.396 31.176 C 47.318 30.761 47.211 30.347 47.105 29.943 C 46.976 29.434 46.836 28.913 46.775 28.403 C 46.472 26.011 46.545 23.53 46.976 21.228 C 47.105 20.539 47.256 19.873 47.43 19.234 C 47.452 19.156 47.469 19.077 47.492 18.999 C 47.497 18.988 47.497 18.982 47.503 18.971 C 48.225 16.372 49.261 14.266 50.572 12.714 C 51.401 11.74 52.555 10.205 53.446 8.357 C 54.347 10.524 54.398 12.289 54.174 14.557 C 54.067 15.655 53.877 16.686 53.597 17.688 C 53.569 17.8 53.535 17.907 53.507 18.013 C 53.502 18.013 53.502 18.019 53.502 18.019 C 53.496 18.03 53.496 18.041 53.49 18.052 C 53.199 19.021 52.824 19.996 52.275 21.195 C 51.642 22.589 50.925 23.917 50.236 25.205 C 49.211 27.092 48.164 29.042 47.396 31.176 Z " fill="rgb(0,0,0)"/><path d=" M 47.816 2.828 C 47.626 1.798 47.502 1.619 47.406 0.006 L 49.026 0 C 48.265 1.389 48.259 1.075 47.816 2.828 Z " fill="rgb(0,0,0)"/><path d=" M 47.406 16.714 C 47.199 14.854 46.852 10.172 47.927 5.422 L 47.927 5.416 C 48.392 3.377 49.07 1.557 49.944 0 L 54.139 0.006 C 54.71 1.826 54.436 3.971 53.321 6.396 C 52.873 7.365 52.346 8.256 51.826 9.029 C 51.305 9.802 50.784 10.457 50.352 10.967 C 49.12 12.429 48.129 14.356 47.406 16.714 Z " fill="rgb(0,0,0)"/></g></svg>